<svg xmlns="http://www.w3.org/2000/svg" enable-background="new 0 0 32 32" viewBox="0 0 32 32"><path fill="#FFF9DD" d="M26,32H6c-3.314,0-6-2.686-6-6V6c0-3.314,2.686-6,6-6h20c3.314,0,6,2.686,6,6v20C32,29.314,29.314,32,26,32z"/><path fill="#FFD200" d="M22.667,8H9.333C8.597,8,8,8.597,8,9.333v13.333C8,23.403,8.597,24,9.333,24h13.334C23.403,24,24,23.403,24,22.667V9.333C24,8.597,23.403,8,22.667,8z M19.876,19.235v0.001c-0.133,0.321-0.345,0.605-0.615,0.823c-0.28,0.227-0.635,0.413-1.071,0.547c-0.436,0.135-0.955,0.203-1.555,0.203h-4.288v-9.333h4.535c0.839,0,1.511,0.189,2.013,0.573c0.507,0.387,0.759,0.963,0.759,1.74c0,0.47-0.115,0.873-0.345,1.207c-0.229,0.331-0.56,0.591-0.987,0.771v0.031c0.569,0.12,1.01,0.39,1.3,0.81c0.29,0.42,0.439,0.951,0.439,1.591c0,0.359-0.069,0.7-0.2,1.019L19.876,19.235z"/><path fill="#FFE777" d="M18.025 16.937c-.273-.25-.657-.372-1.153-.372H13.99v2.912h2.889c.493 0 .88-.128 1.153-.387.273-.257.413-.623.413-1.093-.005-.46-.14-.816-.413-1.06H18.025zM17.622 15.055h.003c.264-.224.393-.545.393-.963 0-.469-.117-.803-.353-.993-.235-.19-.573-.289-1.019-.289h-2.667v2.575h2.667C17.035 15.385 17.366 15.272 17.622 15.055z"/></svg>