<?xml version="1.0" encoding="iso-8859-1"?>
<!-- Generator: Adobe Illustrator 18.0.0, SVG Export Plug-In . SVG Version: 6.00 Build 0)  -->
<!DOCTYPE svg PUBLIC "-//W3C//DTD SVG 1.1//EN" "http://www.w3.org/Graphics/SVG/1.1/DTD/svg11.dtd">
<svg version="1.1" id="Capa_1" xmlns="http://www.w3.org/2000/svg" xmlns:xlink="http://www.w3.org/1999/xlink" x="0px" y="0px"
	 viewBox="0 0 404.291 404.291" style="enable-background:new 0 0 404.291 404.291;" xml:space="preserve">
<g>
	<path style="fill:#26A3BF;" d="M404.291,104.283v225.813c0,8.411-6.823,15.234-15.246,15.234H15.25
		c-8.423,0-15.246-6.823-15.246-15.234V104.283c0-8.411,6.823-15.246,15.246-15.246h373.796
		C397.469,89.037,404.291,95.872,404.291,104.283z"/>
	<rect x="18.05" y="107.087" style="opacity:0.5;fill:#FFFFFF;" width="368.189" height="220.193"/>
	<rect x="154.315" y="345.334" style="fill:#1E94A8;" width="95.658" height="27.073"/>
	<rect x="127.305" y="372.407" style="fill:#26A3BF;" width="149.678" height="20.814"/>
	<rect x="176.201" y="63.281" style="fill:#26A3BF;" width="48.276" height="153.507"/>
	<polygon style="fill:#FFE473;" points="224.477,63.281 176.201,63.281 200.339,11.07 	"/>
	<polygon style="fill:#FFE473;" points="160.923,185.45 176.201,150.955 176.201,216.788 160.923,216.788 	"/>
	<polygon style="fill:#FFE473;" points="239.755,185.45 224.477,150.955 224.477,216.788 239.755,216.788 	"/>
	<g>
		<path style="fill:#F98680;" d="M386.238,266.104c-2.96-1.552-6.329-2.442-9.903-2.442c-4.741,0-9.109,1.576-12.647,4.2
			c-5.331-8.195-14.56-13.622-25.065-13.622c-12.466,0-23.14,7.641-27.628,18.483c-3.333-1.432-7.003-2.238-10.878-2.238
			c-10.228,0-19.133,5.595-23.874,13.886c-1.673-0.409-3.405-0.65-5.198-0.65c-7.677,0-14.44,3.923-18.386,9.879
			c-2.888-3.405-7.196-5.571-11.997-5.571c-7.328,0-13.465,5.018-15.222,11.78c-0.012,0-0.012,0-0.024,0
			c-0.069,0-0.135,0.009-0.204,0.01l-6.026-66.638h-34.084l-6.026,66.638c-0.069-0.001-0.135-0.01-0.204-0.01
			c-0.012,0-0.012,0-0.024,0c-1.757-6.763-7.894-11.78-15.222-11.78c-4.801,0-9.109,2.166-11.997,5.571
			c-3.947-5.956-10.709-9.879-18.386-9.879c-1.793,0-3.526,0.241-5.198,0.65c-4.741-8.291-13.646-13.886-23.874-13.886
			c-3.875,0-7.545,0.806-10.878,2.238c-4.488-10.842-15.162-18.483-27.628-18.483c-10.505,0-19.734,5.427-25.065,13.622
			c-3.538-2.623-7.906-4.2-12.647-4.2c-3.574,0-6.943,0.89-9.903,2.442v61.176h368.189V266.104z"/>
	</g>
	<path style="opacity:0.5;fill:#FFFFFF;" d="M148.886,89.037L0,237.934V104.283c0-8.411,6.823-15.246,15.246-15.246H148.886z"/>
	<path style="opacity:0.5;fill:#FFFFFF;" d="M404.291,172.318v157.778c0,8.411-6.823,15.234-15.246,15.234H231.28L404.291,172.318z"
		/>
	<circle style="fill:#FFE473;" cx="200.339" cy="95.86" r="10.83"/>
	<circle style="fill:#FFE473;" cx="200.339" cy="129.679" r="10.83"/>
	<circle style="fill:#FFE473;" cx="200.339" cy="164.43" r="10.83"/>
</g>
<g>
</g>
<g>
</g>
<g>
</g>
<g>
</g>
<g>
</g>
<g>
</g>
<g>
</g>
<g>
</g>
<g>
</g>
<g>
</g>
<g>
</g>
<g>
</g>
<g>
</g>
<g>
</g>
<g>
</g>
</svg>
