<svg xmlns="http://www.w3.org/2000/svg" enable-background="new 0 0 512 512" viewBox="0 0 512 512"><polygon fill="#275e87" points="437 507 75 507 5 265 75 265"/><rect width="300" height="420" x="75" y="5" fill="#69bdfb"/><rect width="300" height="420" x="106" y="46" fill="#9cd3fc"/><polygon fill="#cde9fe" points="437 507 437 149 375 87 137 87 137 507"/><polygon fill="#69bdfb" points="375 149 437 149 375 87"/><rect width="176" height="10" x="199" y="186" fill="#3279af"/><rect width="176" height="10" x="199" y="227" fill="#3279af"/><rect width="176" height="10" x="199" y="269" fill="#3279af"/><polygon fill="#3279af" points="507 265 437 507 75 507 145 315 355 315 375 265"/><path fill="#275e87" d="M467,265c0,0-65,183-315,242h285l70-242H467z"/></svg>