<svg xmlns="http://www.w3.org/2000/svg" data-name="Layer 1" viewBox="0 0 512 512"><path fill="#ffe966" d="M504.5,256c0,25.71871-24.27006,47.28511-31.79677,70.49186-7.8009,24.05217-1.09741,55.72844-15.65127,75.74867-14.69935,20.22037-46.96177,23.5574-67.15962,38.27312-19.99787,14.57-33.05808,44.33937-57.08337,52.149-23.181,7.53516-51.11876-8.61715-76.809-8.61715s-53.62769,16.15235-76.80861,8.61726c-24.02541-7.8096-37.08574-37.579-57.08369-52.149-20.19786-14.71572-52.46028-18.05274-67.15963-38.27311-14.55381-20.02014-7.85029-51.69632-15.6512-75.74839C31.77009,303.28533,7.5,281.71884,7.5,256s24.27006-47.28511,31.79677-70.49186c7.8009-24.05217,1.09741-55.72844,15.65127-75.74867,14.69935-20.22037,46.96177-23.5574,67.15962-38.27312,19.99787-14.57,33.05808-44.33936,57.08337-52.149,23.181-7.53516,51.11875,8.61715,76.809,8.61715s53.62769-16.15235,76.80861-8.61726c24.02541,7.8096,37.08574,37.579,57.08369,52.14905,20.19786,14.71572,52.46028,18.05274,67.15963,38.27311,14.55381,20.02014,7.85029,51.69632,15.6512,75.74839C480.22991,208.71467,504.5,230.28116,504.5,256Z"/><ellipse cx="256" cy="256" fill="#f66" rx="175.014" ry="175.209"/><path fill="#ff4e4e" d="M248.36088,333.14993a19.304,19.304,0,0,1-13.69265-5.67155l-40.29254-40.29211A19.36464,19.36464,0,0,1,221.761,259.80012l26.59988,26.59946L350.23905,184.52141a19.36449,19.36449,0,1,1,27.38531,27.38573L262.054,327.47838A19.30568,19.30568,0,0,1,248.36088,333.14993Z"/><path fill="#fff" d="M218.36088,333.14993a19.304,19.304,0,0,1-13.69265-5.67155l-40.29254-40.29211A19.36464,19.36464,0,0,1,191.761,259.80012l26.59988,26.59946L320.23905,184.52141a19.36449,19.36449,0,1,1,27.38531,27.38573L232.054,327.47838A19.30568,19.30568,0,0,1,218.36088,333.14993Z"/></svg>