<?xml version="1.0" encoding="iso-8859-1"?>
<!-- Generator: Adobe Illustrator 19.0.0, SVG Export Plug-In . SVG Version: 6.00 Build 0)  -->
<svg version="1.1" id="Layer_1" xmlns="http://www.w3.org/2000/svg" xmlns:xlink="http://www.w3.org/1999/xlink" x="0px" y="0px"
	 viewBox="0 0 512 512" style="enable-background:new 0 0 512 512;" xml:space="preserve">
<rect x="4" y="80.507" style="fill:#FFFFFF;" width="504.004" height="358.499"/>
<g>
	<polygon style="fill:#E2E2E2;" points="369.968,401.825 142.032,401.825 104.664,430.241 407.336,430.241 	"/>
	<polygon style="fill:#E2E2E2;" points="113.32,401.825 47.632,401.825 10.256,430.241 76.072,430.241 	"/>
	<polygon style="fill:#E2E2E2;" points="464.368,401.825 398.68,401.825 435.928,430.241 501.744,430.241 	"/>
	<polygon style="fill:#E2E2E2;" points="369.968,118.441 142.032,118.441 104.664,90.025 407.336,90.025 	"/>
	<polygon style="fill:#E2E2E2;" points="113.32,118.441 47.632,118.441 10.256,90.025 76.072,90.025 	"/>
	<polygon style="fill:#E2E2E2;" points="464.368,118.441 398.68,118.441 435.928,90.025 501.744,90.025 	"/>
</g>
<path style="fill:#E5E5E5;" d="M504,84.505v350.495H8V84.505H504 M512,76.505H0v366.496h512V76.505z"/>
<path d="M0,90.025V26.289c0.026-8.825,7.175-15.973,16-16h479.96c8.825,0.026,15.973,7.175,16,16v63.728H0V90.025z"/>
<polygon style="fill:#FFFFFF;" points="471.624,72.161 171.536,72.161 200.24,28.161 471.624,28.161 "/>
<circle style="fill:#E21B1B;" cx="53.904" cy="49.557" r="13.608"/>
<circle style="fill:#939393;" cx="89.973" cy="49.557" r="13.608"/>
<circle style="fill:#E2E2E2;" cx="126.057" cy="49.557" r="13.608"/>
<path d="M215.624,41.897l1.912,8.312c0.416,1.952,0.8,3.944,1.168,5.936h0.08c0.376-1.992,0.976-4,1.504-5.896l2.4-8.352h3.76
	l2.296,8.128c0.56,2.144,1.048,4.136,1.464,6.128h0.08c0.296-1.992,0.712-4,1.2-6.128l2.032-8.128h4.544l-5.752,18.312h-4.312
	l-2.176-7.448c-0.566-1.929-1.031-3.887-1.392-5.864h-0.08c-0.336,1.983-0.801,3.942-1.392,5.864l-2.328,7.448h-4.328l-5.424-18.312
	H215.624z"/>
<path d="M244.392,41.897l1.912,8.312c0.416,1.952,0.8,3.944,1.168,5.936h0.08c0.376-1.992,0.976-4,1.504-5.896l2.4-8.352h3.76
	l2.296,8.128c0.56,2.144,1.048,4.136,1.464,6.128h0.08c0.296-1.992,0.712-4,1.2-6.128l2.032-8.128h4.544l-5.752,18.312h-4.288
	l-2.176-7.448c-0.566-1.929-1.031-3.887-1.392-5.864h-0.08c-0.336,1.983-0.801,3.942-1.392,5.864l-2.328,7.448h-4.328l-5.416-18.312
	H244.392z"/>
<path d="M273.16,41.897l1.912,8.312c0.416,1.952,0.8,3.944,1.168,5.936h0.08c0.376-1.992,0.976-4,1.504-5.896l2.4-8.352h3.76
	l2.296,8.128c0.56,2.144,1.048,4.136,1.464,6.128h0.08c0.296-1.992,0.712-4,1.2-6.128l2.032-8.128h4.544l-5.752,18.312h-4.328
	l-2.176-7.448c-0.566-1.929-1.031-3.887-1.392-5.864h-0.08c-0.336,1.983-0.801,3.942-1.392,5.864l-2.328,7.448h-4.328l-5.416-18.312
	H273.16z"/>
<path d="M296.312,57.649c-0.089-1.548,1.094-2.876,2.643-2.964c0.071-0.004,0.142-0.006,0.213-0.004
	c1.639,0,2.968,1.329,2.968,2.968s-1.329,2.968-2.968,2.968c-1.559,0.02-2.84-1.229-2.86-2.788
	C296.307,57.768,296.309,57.709,296.312,57.649z"/>
<polygon points="342.688,434.865 169.312,434.865 193.312,416.617 318.688,416.617 "/>
<rect y="430.239" width="511.995" height="12.768"/>
<polygon points="501.744,430.241 435.928,430.241 407.336,430.241 104.664,430.241 76.072,430.241 10.256,430.241 0,430.241 
	0,443.009 512,443.009 512,430.241 "/>
<polygon points="440.352,63.161 437.496,60.361 447.384,50.201 436.905,39.977 439.696,37.121 453.04,50.121 "/>
<rect x="421.621" y="48.161" width="26.412" height="4"/>
<path style="fill:#E21B1B;" d="M452.128,313.057l-49.68-40.088l31.952-55.416l-67.416-5.896l-5.912-64.848l-56.8,27.12
	l-39.024-50.728l-36.664,51.88l-59.136-30.656l-3.552,67.2l-66.232,3.536l24.8,63.672L73.599,309.52l52.04,38.912l-26.024,55.416
	l65.056,7.072l3.552,66.032l60.32-28.296l40.256,53.056l35.48-53.056l55.592,27.12l4.728-66.032l65.056-1.176L406,354.327
	L452.128,313.057z"/>
<g>
	<path style="fill:#FFFFFF;" d="M150.4,240.497h45.92v11.92h-31.376v21.984H194.2v11.92h-29.256v33.76H150.4V240.497z"/>
	<path style="fill:#FFFFFF;" d="M207.496,241.561c7.264-1.135,14.607-1.69,21.96-1.656c8.681-0.837,17.377,1.43,24.544,6.4
		c4.567,4.012,7.081,9.87,6.84,15.944c-0.061,9.037-5.841,17.043-14.4,19.944v0.368c6.014,2.954,10.171,8.699,11.096,15.336
		c1.545,7.54,3.638,14.957,6.264,22.192h-15c-2.308-6.091-4.083-12.37-5.304-18.768c-2.248-10.4-6.016-13.696-14.288-13.92h-7.312
		v32.696h-14.398V241.561z M221.896,276.761h8.616c9.792,0,15.928-5.2,15.928-13.104c0-8.736-6.144-12.752-15.576-12.752
		c-3.006-0.086-6.012,0.153-8.968,0.712L221.896,276.761z"/>
	<path style="fill:#FFFFFF;" d="M319.105,284.761h-29.976v23.376h33.512v11.92h-48.04v-79.56h46.272v11.92h-31.744v20.544h29.976
		V284.761z"/>
	<path style="fill:#FFFFFF;" d="M379.824,284.761h-29.968v23.376h33.512v11.92H335.32v-79.56h46.28v11.92h-31.744v20.544h29.976
		L379.824,284.761z"/>
	<path style="fill:#FFFFFF;" d="M151.56,376.801c2.856,1.592,6.067,2.44,9.336,2.464c4.512,0,7.04-2.112,7.04-5.256
		c0-2.92-1.944-4.632-6.872-6.4c-6.352-2.28-10.4-5.672-10.4-11.2c0-6.296,5.256-11.096,13.6-11.096
		c3.2-0.091,6.378,0.575,9.272,1.944l-1.72,5.656c-2.37-1.227-5.004-1.852-7.672-1.824c-4.456,0-6.4,2.4-6.4,4.632
		c0,2.976,2.232,4.344,7.384,6.352c6.688,2.52,9.952,5.896,9.952,11.448c0,6.184-4.696,11.568-14.656,11.568
		c-3.607,0.021-7.167-0.8-10.4-2.4L151.56,376.801z"/>
	<path style="fill:#FFFFFF;" d="M188.465,345.881v15.456h16.336v-15.456h7.04v38.576h-7.04v-16.992h-16.336v16.992h-7.056v-38.576
		H188.465z"/>
	<path style="fill:#FFFFFF;" d="M226.888,345.881v38.576h-7.056v-38.576H226.888z"/>
	<path style="fill:#FFFFFF;" d="M234.944,346.401c3.556-0.583,7.157-0.851,10.76-0.8c4.049-0.303,8.079,0.808,11.4,3.144
		c2.465,2.139,3.846,5.266,3.768,8.528c0.165,3.252-1.035,6.424-3.312,8.752c-3.366,2.922-7.743,4.408-12.192,4.136
		c-1.148,0.022-2.297-0.052-3.432-0.224v14.528h-6.992L234.944,346.401z M241.936,364.369c1.128,0.234,2.281,0.331,3.432,0.288
		c5.256,0,8.464-2.568,8.464-7.096c0-4.288-2.976-6.584-7.84-6.584c-1.361-0.032-2.721,0.086-4.056,0.352L241.936,364.369
		L241.936,364.369z"/>
	<path style="fill:#FFFFFF;" d="M266.912,346.401c3.556-0.583,7.157-0.851,10.76-0.8c4.049-0.303,8.079,0.808,11.4,3.144
		c2.465,2.139,3.846,5.266,3.768,8.528c0.165,3.252-1.035,6.424-3.312,8.752c-3.366,2.922-7.743,4.408-12.192,4.136
		c-1.148,0.022-2.297-0.052-3.432-0.224v14.528h-6.992V346.401z M273.904,364.369c1.128,0.234,2.281,0.331,3.432,0.288
		c5.256,0,8.464-2.568,8.464-7.096c0-4.288-2.976-6.584-7.84-6.584c-1.361-0.032-2.721,0.086-4.056,0.352L273.904,364.369
		L273.904,364.369z"/>
	<path style="fill:#FFFFFF;" d="M305.928,345.881v38.576h-7.056v-38.576H305.928z"/>
	<path style="fill:#FFFFFF;" d="M313.984,384.457v-38.576h8L332,362.401c2.482,4.16,4.681,8.482,6.584,12.936h0.104
		c-0.456-5.152-0.624-10.12-0.624-16v-13.456h6.52v38.576h-7.304l-10.08-16.944c-2.554-4.309-4.862-8.758-6.912-13.328l-0.184,0.064
		c0.288,4.968,0.352,10.064,0.352,16.416v13.8L313.984,384.457z"/>
	<path style="fill:#FFFFFF;" d="M383.552,382.681c-3.988,1.413-8.185,2.149-12.416,2.176c-5.523,0.368-10.963-1.487-15.112-5.152
		c-3.681-3.778-5.631-8.914-5.384-14.184c-0.27-10.822,8.283-19.813,19.105-20.083c0.787-0.02,1.575,0.008,2.359,0.083
		c3.505-0.094,6.991,0.526,10.248,1.824l-1.552,5.672c-2.763-1.177-5.749-1.742-8.752-1.656c-7.102-0.64-13.379,4.6-14.018,11.702
		c-0.064,0.713-0.069,1.431-0.014,2.145c-0.682,7.01,4.447,13.245,11.456,13.928c0.643,0.063,1.29,0.077,1.935,0.041
		c1.814,0.092,3.629-0.179,5.336-0.8v-9.6h-6.808v-5.576h13.6L383.552,382.681z"/>
</g>
<g>
</g>
<g>
</g>
<g>
</g>
<g>
</g>
<g>
</g>
<g>
</g>
<g>
</g>
<g>
</g>
<g>
</g>
<g>
</g>
<g>
</g>
<g>
</g>
<g>
</g>
<g>
</g>
<g>
</g>
</svg>
