<svg xmlns="http://www.w3.org/2000/svg" enable-background="new 0 0 36 36" viewBox="0 0 36 36"><g transform="translate(-1.676 -6.704) scale(1.1173)"><path fill="#fbbc04" d="M2.6,33.6l14.5-23h9v3.2L13.6,33.6"/><path fill="#1a73e8" d="M26.1,33.6h-9v-23h9V33.6z"/><path fill="#34a853" d="M32.6,27.1c0,3.6-2.9,6.5-6.5,6.5v-13C29.7,20.6,32.6,23.5,32.6,27.1z"/><path fill="#0d652d" d="M26.1,33.6c-3.6,0-6.5-2.9-6.5-6.5s2.9-6.5,6.5-6.5V33.6z"/><path fill="#1a73e8" d="M31.1,15.6c0,2.8-2.2,5-5,5v-10C28.9,10.6,31.1,12.8,31.1,15.6z"/><path fill="#174ea6" d="M26.1,20.6c-2.8,0-5-2.2-5-5s2.2-5,5-5V20.6z"/><path fill="#ea4335" d="M3.1,15.1c0-2.5,2-4.5,4.5-4.5s4.5,2,4.5,4.5s-2,4.5-4.5,4.5S3.1,17.6,3.1,15.1z"/></g></svg>