<?xml version="1.0" encoding="iso-8859-1"?>
<!-- Generator: Adobe Illustrator 19.0.0, SVG Export Plug-In . SVG Version: 6.00 Build 0)  -->
<svg version="1.1" id="Layer_1" xmlns="http://www.w3.org/2000/svg" xmlns:xlink="http://www.w3.org/1999/xlink" x="0px" y="0px"
	 viewBox="0 0 512 512" style="enable-background:new 0 0 512 512;" xml:space="preserve">
<circle style="fill:#666666;" cx="428.368" cy="374.144" r="41.248"/>
<path d="M352.752,503.296v-39.392c0-23.36,19.44-29.136,28.912-30.56l32.256,69.952H352.752z"/>
<path d="M377.04,442.432l24.384,52.864h-40.672v-31.392C360.752,450.336,369.376,444.736,377.04,442.432 M386.56,424.88
	c0,0-41.808,0.56-41.808,39.024s0,47.392,0,47.392s81.392,0,81.68,0L386.56,424.88L386.56,424.88z M426.416,511.296L426.416,511.296
	L426.416,511.296L426.416,511.296z"/>
<path d="M442.832,503.296l32.272-69.968c9.664,1.408,28.912,7.136,28.912,30.576v39.392H442.832z"/>
<path d="M479.712,442.432c7.664,2.304,16.288,7.904,16.288,21.472v31.392h-40.672L479.712,442.432 M470.192,424.88l-39.872,86.416
	l0,0H512c0,0,0-8.928,0-47.392S470.192,424.88,470.192,424.88L470.192,424.88z"/>
<polygon style="fill:#F33052;" points="428.368,424.88 399.664,424.88 428.368,488.432 457.088,424.88 "/>
<circle style="fill:#666666;" cx="83.632" cy="374.144" r="41.248"/>
<path d="M8,503.296v-39.392c0-23.36,19.44-29.136,28.912-30.56l32.256,69.952H8z"/>
<path d="M32.288,442.432l24.384,52.864H16v-31.392C16,450.336,24.624,444.736,32.288,442.432 M41.808,424.88
	c0,0-41.808,0.56-41.808,39.024s0,47.392,0,47.392s81.392,0,81.68,0L41.808,424.88L41.808,424.88z M81.68,511.296L81.68,511.296
	L81.68,511.296L81.68,511.296z"/>
<path d="M98.08,503.296l32.272-69.968c9.664,1.408,28.912,7.136,28.912,30.576v39.392H98.08z"/>
<path d="M134.96,442.432c7.664,2.288,16.288,7.904,16.288,21.472v31.392h-40.672L134.96,442.432 M125.44,424.88l-39.856,86.416l0,0
	h81.68c0,0,0-8.928,0-47.392C167.248,425.44,125.44,424.88,125.44,424.88L125.44,424.88z"/>
<polygon style="fill:#F33052;" points="83.632,424.88 54.912,424.88 83.632,488.432 112.336,424.88 "/>
<polygon points="436.368,300.896 420.368,300.896 420.368,239.136 91.632,239.136 91.632,300.896 75.632,300.896 75.632,223.136 
	436.368,223.136 "/>
<rect x="249.952" y="155.232" width="16" height="83.152"/>
<g>
	<path style="fill:#F33052;" d="M152.016,0.72v103.696h-19.68V59.6H83.712v44.832h-19.68V0.72h19.68v42.32h48.624V0.72H152.016z"/>
	<path style="fill:#F33052;" d="M211.6,18.352v86.08h-19.68v-86.08h-29.936V0.72h80.624v17.632H211.6z"/>
	<path style="fill:#F33052;" d="M373.792,0.72v103.696h-19.664V47.888c0-4.496,0.128-9.632,0.368-15.344l0.368-7.744l0.384-7.664
		h-0.608l-2.352,7.216L350,31.568c-2.128,6.48-3.776,11.264-4.944,14.352l-22.8,58.496h-17.92l-23.024-58.048
		c-1.264-3.184-2.944-7.968-5.008-14.352l-2.336-7.216l-2.352-7.136h-0.608l0.368,7.52l0.384,7.616
		c0.304,5.872,0.448,10.912,0.448,15.104v56.528h-19.68V0.72h32.064l18.544,48.016c1.264,3.344,2.944,8.128,5.008,14.352
		l2.288,7.216l2.336,7.136h0.688l2.208-7.136l2.288-7.136c1.872-6.032,3.504-10.8,4.864-14.288l18.24-48.176h32.736V0.72z"/>
	<path style="fill:#F33052;" d="M411.696,0.72V86.8h48.624v17.632H392V0.72H411.696z"/>
</g>
<g>
</g>
<g>
</g>
<g>
</g>
<g>
</g>
<g>
</g>
<g>
</g>
<g>
</g>
<g>
</g>
<g>
</g>
<g>
</g>
<g>
</g>
<g>
</g>
<g>
</g>
<g>
</g>
<g>
</g>
</svg>
