<?xml version="1.0" encoding="iso-8859-1"?>
<!-- Generator: Adobe Illustrator 19.0.0, SVG Export Plug-In . SVG Version: 6.00 Build 0)  -->
<svg version="1.1" id="Layer_1" xmlns="http://www.w3.org/2000/svg" xmlns:xlink="http://www.w3.org/1999/xlink" x="0px" y="0px"
	 viewBox="0 0 511.999 511.999" style="enable-background:new 0 0 511.999 511.999;" xml:space="preserve">
<path style="fill:#4D4D4D;" d="M65.873,332.144C29.502,332.144,0,302.63,0,266.259v-19.061l138.139-33.74l144.056,23.811
	c-19.465,17.918-61.48,65.051-70.242,73.814c-12.858,12.858-53.729,5.679-58.206,21.061H65.873z"/>
<path style="fill:#B3B3B3;" d="M273.849,383.611c-45.455,45.455-121.9,26.859-121.9,26.859s-9.56-39.312,1.798-78.326
	c4.476-15.382,12.203-30.716,25.061-43.574c8.762-8.762,24.073-23.454,43.538-41.371c12.322-11.334,26.323-23.978,41.395-37.205
	c84.457-74.242,202.44-167.534,247.717-159.033C523.864,117.072,319.304,338.156,273.849,383.611z"/>
<path style="fill:#2BA5F7;" d="M263.73,209.982c-7.881-27.549-33.24-47.717-63.325-47.717h-0.012v-51.67h11.489
	c11.096,0,20.096-8.989,20.096-20.096V79.022c0-11.096-9.001-20.096-20.096-20.096H54.396c-11.108,0-20.096,9.001-20.096,20.096
	v11.477c0,11.108,8.989,20.096,20.096,20.096h11.477v51.67C29.502,162.265,0,191.755,0,228.15v19.049h222.346
	c33.657,30.549,79.395,1.255,41.395-37.205L263.73,209.982z"/>
<path style="fill:#333333;" d="M131.758,332.144H65.873C29.502,332.144,0,302.63,0,266.259v-19.061h65.885v19.061
	C65.885,302.63,95.387,332.144,131.758,332.144z"/>
<path style="fill:#2197D8;" d="M119.34,162.265v-51.67h-9.586c-11.108,0-20.096-8.989-20.096-20.096V79.022
	c0-11.096,8.989-20.096,20.096-20.096H54.396c-11.108,0-20.096,9.001-20.096,20.096v11.477c0,11.108,8.989,20.096,20.096,20.096
	h11.477v51.67l0,0C29.502,162.265,0,191.755,0,228.15v19.049h65.885V228.15c0-36.395,29.502-65.885,65.873-65.885H119.34z"/>
<polyline style="fill:none;stroke:#333333;stroke-width:15;stroke-linecap:round;stroke-linejoin:round;stroke-miterlimit:10;" points="
	65.873,314.667 65.873,314.679 65.873,338.466 "/>
<path style="fill:#CCCCCC;" d="M511.458,50.961L151.949,410.47c0,0-9.56-39.312,1.798-78.326
	c4.476-15.382,12.203-30.716,25.061-43.574c8.762-8.762,24.073-23.454,43.538-41.371c12.322-11.334,26.323-23.978,41.395-37.205
	C348.199,135.752,466.182,42.46,511.458,50.961z"/>
<path style="fill:#808080;" d="M449.788,112.643c0,0-1.238,1.488-3.559,4.28c-2.356,2.755-5.736,6.872-10.188,11.963
	c-4.43,5.111-9.782,11.346-16.031,18.386c-6.237,7.053-13.325,14.959-21.106,23.535c-15.569,17.145-33.962,36.918-53.946,57.825
	c-4.976,5.247-10.087,10.529-15.26,15.876c-5.165,5.357-10.403,10.767-15.728,16.176c-10.593,10.876-21.479,21.799-32.347,32.739
	c-10.939,10.87-21.855,21.763-32.73,32.355c-2.712,2.655-5.412,5.3-8.099,7.933c-2.705,2.613-5.397,5.215-8.073,7.799
	c-5.353,5.168-10.624,10.29-15.874,15.264c-10.448,9.998-20.63,19.581-30.322,28.63c-9.704,9.039-18.936,17.526-27.504,25.315
	c-8.578,7.779-16.485,14.865-23.539,21.1c-7.043,6.247-13.278,11.598-18.393,16.025c-5.093,4.448-9.21,7.828-11.967,10.182
	c-2.792,2.319-4.281,3.556-4.281,3.556s1.237-1.489,3.556-4.282c2.354-2.757,5.734-6.874,10.182-11.967
	c4.426-5.115,9.778-11.349,16.025-18.393c6.235-7.055,13.321-14.962,21.101-23.539c7.789-8.567,16.276-17.8,25.316-27.503
	c9.049-9.692,18.633-19.874,28.631-30.321c4.974-5.249,10.096-10.521,15.264-15.874c2.585-2.675,5.186-5.367,7.799-8.073
	c2.632-2.687,5.277-5.388,7.933-8.099c10.592-10.876,21.486-21.791,32.357-32.729c10.94-10.868,21.864-21.754,32.74-32.346
	c5.409-5.325,10.82-10.564,16.177-15.727c5.348-5.173,10.629-10.285,15.877-15.26c20.91-19.983,40.682-38.375,57.827-53.944
	c8.576-7.781,16.482-14.869,23.536-21.105c7.04-6.25,13.276-11.601,18.387-16.031c5.091-4.45,9.208-7.83,11.964-10.186
	C448.3,113.88,449.788,112.643,449.788,112.643z"/>
<rect x="119.34" y="110.589" style="fill:#2197D8;" width="81.052" height="17.144"/>
<g>
</g>
<g>
</g>
<g>
</g>
<g>
</g>
<g>
</g>
<g>
</g>
<g>
</g>
<g>
</g>
<g>
</g>
<g>
</g>
<g>
</g>
<g>
</g>
<g>
</g>
<g>
</g>
<g>
</g>
</svg>
