<svg xmlns="http://www.w3.org/2000/svg" width="32" height="32"><path style="isolation:auto;mix-blend-mode:normal" fill="#60c5b8" d="M8.923 1034.208a.288.288 0 0 0-.288.289v1.616a6.346 6.346 0 0 0-1.905.785l-1.14-1.14a.288.288 0 0 0-.408 0l-1.633 1.632a.288.288 0 0 0 0 .408l1.143 1.143a6.346 6.346 0 0 0-.789 1.902H2.288a.288.288 0 0 0-.288.288v2.308c0 .16.129.289.288.289h1.616a6.346 6.346 0 0 0 .786 1.904l-1.14 1.14a.288.288 0 0 0 0 .408l1.632 1.633a.288.288 0 0 0 .408 0l1.143-1.143a6.346 6.346 0 0 0 1.902.79v1.614c0 .16.128.288.288.288h2.308c.16 0 .288-.128.288-.288v-1.616a6.346 6.346 0 0 0 1.905-.785l1.14 1.14a.288.288 0 0 0 .408 0l1.632-1.633a.288.288 0 0 0 0-.408l-1.142-1.142a6.346 6.346 0 0 0 .789-1.902h1.614c.16 0 .289-.13.289-.289v-2.307a.288.288 0 0 0-.289-.289H16.25a6.346 6.346 0 0 0-.786-1.904l1.14-1.14a.288.288 0 0 0 0-.409l-1.632-1.632a.288.288 0 0 0-.408 0l-1.143 1.142a6.346 6.346 0 0 0-1.902-.789v-1.614a.288.288 0 0 0-.288-.289H8.923zm1.154 4.039a4.038 4.038 0 0 1 4.038 4.038 4.038 4.038 0 0 1-4.038 4.039 4.038 4.038 0 0 1-4.039-4.039 4.038 4.038 0 0 1 4.039-4.038zm10.603-5.56a.182.182 0 0 0-.13.224l.265.988a4.02 4.02 0 0 0-1.036.793l-.884-.51a.18.18 0 0 0-.25.066l-.731 1.267a.182.182 0 0 0 .067.25l.886.511a4.02 4.02 0 0 0-.17 1.293l-.988.265a.182.182 0 0 0-.13.223l.379 1.412a.182.182 0 0 0 .223.13l.989-.266a4.02 4.02 0 0 0 .793 1.037l-.511.884a.182.182 0 0 0 .067.25l1.266.73c.088.052.199.02.25-.066l.511-.886a4.02 4.02 0 0 0 1.293.17l.265.988a.182.182 0 0 0 .224.13l1.411-.379a.182.182 0 0 0 .13-.224l-.265-.988a4.02 4.02 0 0 0 1.036-.793l.885.51a.182.182 0 0 0 .25-.066l.73-1.267a.182.182 0 0 0-.067-.25l-.886-.51a4.02 4.02 0 0 0 .17-1.294l.989-.264a.182.182 0 0 0 .129-.224l-.378-1.412a.182.182 0 0 0-.224-.13l-.989.266a4.02 4.02 0 0 0-.792-1.036l.51-.885a.182.182 0 0 0-.066-.25l-1.267-.73a.18.18 0 0 0-.25.066l-.511.887a4.02 4.02 0 0 0-1.293-.171l-.265-.988a.182.182 0 0 0-.223-.13l-1.412.38zm1.368 2.282a2.558 2.558 0 0 1 3.132 1.808 2.558 2.558 0 0 1-1.808 3.133 2.558 2.558 0 0 1-3.133-1.809 2.558 2.558 0 0 1 1.809-3.132zm-7.433-12.607a.212.212 0 0 0-.211.212v1.185a4.654 4.654 0 0 0-1.397.576l-.836-.837a.21.21 0 0 0-.299 0l-1.197 1.198a.21.21 0 0 0 0 .299l.838.838a4.654 4.654 0 0 0-.579 1.394H9.75a.21.21 0 0 0-.212.212v1.692c0 .118.095.212.212.212h1.185a4.654 4.654 0 0 0 .576 1.396l-.836.837a.211.211 0 0 0 0 .299l1.197 1.197a.21.21 0 0 0 .3 0l.837-.838a4.654 4.654 0 0 0 1.395.579v1.184c0 .117.094.211.211.211h1.693a.212.212 0 0 0 .211-.211v-1.185a4.654 4.654 0 0 0 1.397-.576l.836.836a.21.21 0 0 0 .3 0l1.196-1.197a.211.211 0 0 0 0-.3l-.837-.837a4.654 4.654 0 0 0 .578-1.395h1.184a.212.212 0 0 0 .212-.212v-1.692a.211.211 0 0 0-.212-.212h-1.185a4.654 4.654 0 0 0-.576-1.396l.836-.836a.21.21 0 0 0 0-.3l-1.197-1.197a.21.21 0 0 0-.299 0l-.838.838a4.654 4.654 0 0 0-1.395-.578v-1.184a.211.211 0 0 0-.211-.212h-1.693zm.847 2.962a2.962 2.962 0 0 1 2.961 2.961 2.962 2.962 0 0 1-2.961 2.962 2.962 2.962 0 0 1-2.962-2.962 2.962 2.962 0 0 1 2.962-2.961z" color="#000" overflow="visible" transform="translate(1.077 -1020.362)"/></svg>