<svg xmlns="http://www.w3.org/2000/svg" xmlns:xlink="http://www.w3.org/1999/xlink" width="16" height="16"><defs><linearGradient id="a"><stop offset="0" stop-color="#fc6a28"/><stop offset="1" stop-color="#f94045"/></linearGradient><linearGradient id="d" x1="-114.553" x2="-108" y1="1033.522" y2="1033.522" gradientUnits="userSpaceOnUse" xlink:href="#a"/><linearGradient id="e" x1="-655" x2="-654" y1="-77" y2="-65" gradientTransform="translate(540 1107.362)" gradientUnits="userSpaceOnUse" xlink:href="#b"/><linearGradient id="b"><stop offset="0" stop-color="#a4b6be"/><stop offset="1" stop-color="#7c8b9d"/></linearGradient><linearGradient id="f" x1="-657" x2="-652" y1="-63.5" y2="-63.5" gradientTransform="translate(540 1107.362)" gradientUnits="userSpaceOnUse" xlink:href="#c"/><linearGradient id="c"><stop offset="0" stop-color="#4b5d64"/><stop offset="1" stop-color="#3d4155"/></linearGradient></defs><path fill="url(#d)" fill-rule="evenodd" d="M-114.553 1031.362h6.322a.23.23 0 0 1 .207.33l-.828 1.722a.251.251 0 0 0 0 .217l.83 1.723a.23.23 0 0 1-.207.328h-6.324z" transform="translate(121 -1028.362)"/><path fill="url(#e)" fill-rule="evenodd" d="M-114.5 1029.362a.5.5 0 0 0-.5.5v13.703h1v-13.703a.5.5 0 0 0-.5-.5z" transform="translate(121 -1028.362)"/><path fill="url(#f)" fill-rule="evenodd" d="M-116.5 1043.362a.5.5 0 0 0-.5.5.5.5 0 0 0 .5.5h4a.5.5 0 0 0 .5-.5.5.5 0 0 0-.5-.5h-4z" transform="translate(121 -1028.362)"/></svg>