<?xml version="1.0" encoding="iso-8859-1"?>
<!-- Generator: Adobe Illustrator 19.0.0, SVG Export Plug-In . SVG Version: 6.00 Build 0)  -->
<svg version="1.1" id="Layer_1" xmlns="http://www.w3.org/2000/svg" xmlns:xlink="http://www.w3.org/1999/xlink" x="0px" y="0px"
		viewBox="0 0 512 512" style="enable-background:new 0 0 512 512;" xml:space="preserve">
		<!-- main color E2E2E2 -->
	<circle style="fill:#ffbf2d;" cx="256" cy="256" r="256"/>
	<polygon style="fill:#E21B1B;" points="512,400.16 0,400.16 0,409.84 25.4,423.352 486.6,423.352 512,409.84 "/>
	<path style="fill:#FFFFFF;" d="M47.624,383.552v-275.44c0-6.584,5.36-11.976,11.912-11.976h388.96
		c6.552,0,11.912,5.392,11.912,11.976V383.56"/>
	<polygon style="fill:#000;" points="468.344,383.552 452.464,383.552 452.464,104.064 55.568,104.064 55.568,383.552 39.688,383.552 39.688,88.192 
		468.344,88.192 "/>
	<rect style="fill:#000;" y="383.552" width="512" height="16.696"/>
	<g>
		<polygon style="fill:#939393;" points="300.672,400.256 207.36,400.256 191.48,383.552 316.544,383.552 	"/>
		<polyline style="fill:gray;" points="238.4,186.4 253.032,145.688 347.416,189.536 	"/>
	</g>
	<circle style="fill:hotpink;" cx="313.44" cy="337.36" r="29.4"/>
	<circle style="fill:hotpink;" cx="224.8" cy="337.36" r="29.4"/>
	<polygon points="202.696,194.232 183.384,137.096 133.4,137.096 133.4,121.824 194.336,121.824 217.16,189.344 "/>
	<polygon style="fill:red;" points="165.656,181.408 377.672,181.408 337.256,294.792 200.968,294.792 "/>
	<g>
		<rect x="212.848" y="208.48" style="fill:#FFFFFF;" width="122.136" height="11.632"/>
		<rect x="212.848" y="233.68" style="fill:#FFFFFF;" width="79.48" height="11.632"/>
	</g>
	<g>
	</g>
	<g>
	</g>
	<g>
	</g>
	<g>
	</g>
	<g>
	</g>
	<g>
	</g>
	<g>
	</g>
	<g>
	</g>
	<g>
	</g>
	<g>
	</g>
	<g>
	</g>
	<g>
	</g>
	<g>
	</g>
	<g>
	</g>
	<g>
	</g>
</svg>
