<?xml version="1.0" encoding="iso-8859-1"?>
<!-- Generator: Adobe Illustrator 19.0.0, SVG Export Plug-In . SVG Version: 6.00 Build 0)  -->
<svg version="1.1" id="Layer_1" xmlns="http://www.w3.org/2000/svg" xmlns:xlink="http://www.w3.org/1999/xlink" x="0px" y="0px"
	 viewBox="0 0 512 512" style="enable-background:new 0 0 512 512;" xml:space="preserve">
<path d="M473.56,397.576V103.232c0-7.04-5.76-12.8-12.8-12.8H51.32c-7.04,0-12.8,5.76-12.8,12.8v294.352
	C38.528,397.576,474.632,397.576,473.56,397.576z"/>
<rect x="54.52" y="106.432" width="403.04" height="275.152"/>
<rect y="397.576" style="fill:#D8D8D8;" width="511.912" height="8"/>
<polygon style="fill:#AAAAAA;" points="486.408,421.568 25.688,421.568 0.088,405.576 512,405.576 "/>
<g style="opacity:0.7;">
	<path style="fill:#FFFFFF;" d="M298.992,397.576H212.92c0.816,4.488,4.824,8,9.832,8h66.4
		C294.168,405.576,298.176,402.064,298.992,397.576z"/>
</g>
<rect x="101.16" y="130.152" style="fill:#E50914;" width="121.504" height="234.664"/>
<rect x="268.92" y="158.416" style="fill:#FFFFFF;" width="109.944" height="8.536"/>
<rect x="268.92" y="186.688" style="fill:#999999;" width="141.896" height="8.536"/>
<rect x="268.92" y="214.952" style="fill:#FFFFFF;" width="109.944" height="8.536"/>
<rect x="268.92" y="243.216" style="fill:#999999;" width="141.896" height="8.536"/>
<rect x="268.92" y="271.488" style="fill:#FFFFFF;" width="109.944" height="8.536"/>
<rect x="268.92" y="299.752" style="fill:#999999;" width="141.896" height="8.536"/>
<rect x="268.92" y="328" style="fill:#FFFFFF;" width="109.944" height="8.536"/>
<g>
</g>
<g>
</g>
<g>
</g>
<g>
</g>
<g>
</g>
<g>
</g>
<g>
</g>
<g>
</g>
<g>
</g>
<g>
</g>
<g>
</g>
<g>
</g>
<g>
</g>
<g>
</g>
<g>
</g>
</svg>
