<?xml version="1.0" encoding="iso-8859-1"?>
<!-- Generator: Adobe Illustrator 19.0.0, SVG Export Plug-In . SVG Version: 6.00 Build 0)  -->
<svg version="1.1" id="Layer_1" xmlns="http://www.w3.org/2000/svg" xmlns:xlink="http://www.w3.org/1999/xlink" x="0px" y="0px"
	 viewBox="0 0 512 512" style="enable-background:new 0 0 512 512;" xml:space="preserve">
<path style="fill:#FFCB5B;" d="M272,376c0-75.2,60.8-136,136-136c28.8,0,56,8.8,77.6,24.8L488,232H24l14.4,218.4
	c0.8,16.8,15.2,29.6,32,29.6h250.4C291.2,455.2,272,417.6,272,376z"/>
<g>
	<path style="fill:#F7B84E;" d="M304.8,464H88c-8.8,0-16,7.2-16,16h184h40h24.8C314.4,475.2,309.6,469.6,304.8,464z"/>
	<path style="fill:#F7B84E;" d="M408,240c28.8,0,56,8.8,77.6,24.8L488,232H296h-40H24l1.6,24H344C363.2,245.6,384.8,240,408,240z"/>
</g>
<g>
	<path style="fill:#35495C;" d="M80,208c-0.8,0-2.4,0-3.2-0.8c-4-1.6-5.6-6.4-4-10.4l57.6-129.6c4.8-12,16.8-19.2,28.8-19.2H176
		c4.8,0,8,3.2,8,8s-3.2,8-8,8h-16.8c-6.4,0-12,4-14.4,9.6L87.2,203.2C85.6,206.4,83.2,208,80,208z"/>
	<path style="fill:#35495C;" d="M432,208c-3.2,0-5.6-1.6-7.2-4.8L367.2,73.6c-2.4-5.6-8-9.6-14.4-9.6H336c-4.8,0-8-3.2-8-8
		s3.2-8,8-8h16.8c12.8,0,24,7.2,29.6,19.2L440,196.8c1.6,4,0,8.8-4,10.4C434.4,208,432.8,208,432,208z"/>
</g>
<path style="fill:#B06328;" d="M328,80H184c-8.8,0-16-7.2-16-16V48c0-8.8,7.2-16,16-16h144c8.8,0,16,7.2,16,16v16
	C344,72.8,336.8,80,328,80z"/>
<path style="fill:#FFCB5B;" d="M496,232H16c-8.8,0-16-5.6-16-13.6v-53.6c0-7.2,7.2-12.8,16-12.8h480c8.8,0,16,5.6,16,13.6v53.6
	C512,226.4,504.8,232,496,232z"/>
<g>
	<circle style="fill:#B06328;" cx="80" cy="192" r="8"/>
	<circle style="fill:#B06328;" cx="432" cy="192" r="8"/>
</g>
<polygon style="fill:#F19920;" points="487.2,240 488,232 24,232 24.8,240 "/>
<path style="fill:#F7B84E;" d="M496,184v16c0,8.8-7.2,16-16,16H32c-8.8,0-16,7.2-16,16l0,0h480c8.8,0,16-7.2,16-16v-48
	C503.2,168,496,175.2,496,184z"/>
<g>
	<path style="fill:#F19920;" d="M184,424L184,424c-4.8,0-8-3.2-8-8V304c0-4.8,3.2-8,8-8l0,0c4.8,0,8,3.2,8,8v112
		C192,420.8,188.8,424,184,424z"/>
	<path style="fill:#F19920;" d="M232,424L232,424c-4.8,0-8-3.2-8-8V304c0-4.8,3.2-8,8-8l0,0c4.8,0,8,3.2,8,8v112
		C240,420.8,236.8,424,232,424z"/>
	<path style="fill:#F19920;" d="M136,424L136,424c-4.8,0-8-3.2-8-8V304c0-4.8,3.2-8,8-8l0,0c4.8,0,8,3.2,8,8v112
		C144,420.8,140.8,424,136,424z"/>
</g>
<path style="fill:#A35623;" d="M328,64H168c0,8.8,7.2,16,16,16h144c8.8,0,16-7.2,16-16V48C335.2,48,328,55.2,328,64z"/>
<g>
	<path style="fill:#F19920;" d="M288,304c0-4.8-3.2-8-8-8s-8,3.2-8,8v72c0-23.2,5.6-44.8,16-64V304z"/>
	<path style="fill:#F19920;" d="M272,376v40c0,4.8,3.2,8,8,8h0.8C275.2,408.8,272,392.8,272,376z"/>
</g>
<circle style="fill:#3689C9;" cx="408" cy="376" r="104"/>
<path style="fill:#FFFFFF;" d="M458.4,364c-6.4-5.6-16.8-4.8-22.4,2.4L424,380v-52c0-8.8-7.2-16-16-16s-16,7.2-16,16v52l-12-14.4
	c-5.6-6.4-16-8-22.4-2.4s-8,16-2.4,22.4l40,48c3.2,4,7.2,5.6,12,5.6s9.6-2.4,12-5.6l40-48C465.6,379.2,464.8,369.6,458.4,364z"/>
<path style="fill:#DDDFE1;" d="M458.4,364c-0.8-0.8-2.4-1.6-4-2.4c2.4,5.6,1.6,12-2.4,16.8l-40,48c-2.4,3.2-7.2,5.6-12,5.6
	c-3.2,0-5.6-0.8-8-2.4l4,4.8c3.2,4,7.2,5.6,12,5.6s9.6-2.4,12-5.6l40-48C465.6,379.2,464.8,369.6,458.4,364z"/>
<path style="fill:#1B6FAB;" d="M496,360c-8.8,0-16,7.2-16,16c0,40-32,72-72,72c-8.8,0-16,7.2-16,16s7.2,16,16,16
	c57.6,0,104-46.4,104-104C512,367.2,504.8,360,496,360z"/>
<path style="fill:#4C9FD7;" d="M320,392c8.8,0,16-7.2,16-16c0-40,32-72,72-72c8.8,0,16-7.2,16-16s-7.2-16-16-16
	c-57.6,0-104,46.4-104,104C304,384.8,311.2,392,320,392z"/>
<g>
	<path style="fill:#1B6FAB;" d="M424,328v52l8-9.6V336c0-6.4-4-12-9.6-14.4C423.2,323.2,424,325.6,424,328z"/>
	<path style="fill:#1B6FAB;" d="M466.4,372c-0.8-0.8-2.4-1.6-4-2.4c2.4,5.6,1.6,12-2.4,16.8l-40,48c-2.4,3.2-7.2,5.6-12,5.6
		c-3.2,0-5.6-0.8-8-2.4l4,4.8c3.2,4,7.2,5.6,12,5.6s9.6-2.4,12-5.6l40-48C473.6,387.2,472.8,377.6,466.4,372z"/>
</g>
<path style="fill:#DDDFE1;" d="M424,380c-4.8,0-8-3.2-8-8v-52c0-2.4-0.8-4.8-1.6-6.4c5.6,2.4,9.6,8,9.6,14.4V380L424,380z"/>
<g>
</g>
<g>
</g>
<g>
</g>
<g>
</g>
<g>
</g>
<g>
</g>
<g>
</g>
<g>
</g>
<g>
</g>
<g>
</g>
<g>
</g>
<g>
</g>
<g>
</g>
<g>
</g>
<g>
</g>
</svg>
