<?xml version="1.0" encoding="iso-8859-1"?>
<!-- Generator: Adobe Illustrator 19.0.0, SVG Export Plug-In . SVG Version: 6.00 Build 0)  -->
<svg version="1.1" id="Layer_1" xmlns="http://www.w3.org/2000/svg" xmlns:xlink="http://www.w3.org/1999/xlink" x="0px" y="0px"
	 viewBox="0 0 511.999 511.999" style="enable-background:new 0 0 511.999 511.999;" xml:space="preserve">
<path style="fill:#3E3E42;" d="M377.089,179.043l-31.714-70.11c-1.46-3.226-0.027-7.026,3.2-8.486l101.101-45.733
	c3.226-1.46,7.026-0.027,8.486,3.2l31.714,70.11c1.46,3.226,0.027,7.026-3.2,8.486l-101.101,45.733
	C382.347,183.703,378.548,182.27,377.089,179.043z"/>
<path style="fill:#242424;" d="M377.089,179.043l-17.531-38.37l112.786-51.019l17.531,38.37c1.46,3.226,0.027,7.026-3.2,8.486
	l-101.101,45.733C382.347,183.703,378.548,182.27,377.089,179.043z"/>
<path style="fill:#E3C129;" d="M361.717,168.64l-76.401,9.17c-3.516,0.422-6.709-2.087-7.131-5.603L264.961,62.034
	c-0.422-3.516,2.087-6.709,5.603-7.131l76.401-9.17c3.516-0.422,6.709,2.087,7.131,5.603l13.224,110.173
	C367.742,165.025,365.233,168.218,361.717,168.64z"/>
<path style="fill:#D6B41A;" d="M361.717,168.64l-38.201,4.586l-15.29-122.842l38.738-4.649c3.516-0.422,6.709,2.087,7.131,5.603
	L367.32,161.51C367.742,165.025,365.233,168.218,361.717,168.64z"/>
<path style="fill:#3E3E42;" d="M244.671,182.754l-35.407-24.287c-4.698-3.223-5.894-9.643-2.672-14.342l24.287-35.407
	c3.223-4.698,9.643-5.894,14.342-2.672l35.407,24.287c4.698,3.223,5.894,9.643,2.672,14.342l-24.287,35.407
	C255.79,184.78,249.369,185.977,244.671,182.754z"/>
<path style="fill:#242424;" d="M244.671,182.754l-19.904-13.64l35.958-52.42l19.904,13.64c4.698,3.223,5.894,9.643,2.672,14.342
	l-24.287,35.407C255.79,184.78,249.369,185.977,244.671,182.754z"/>
<path style="fill:#F7603E;" d="M178.975,153.701c-4.678,0-9.079,2.217-11.865,5.976c-2.786,3.758-3.629,8.617-2.266,13.093
	l47.474,155.985c1.894,6.221,7.625,10.461,14.128,10.461c40.979,0,182.082,0,223.312,0c6.495,0,12.237-4.247,14.128-10.46
	l47.474-155.985c1.363-4.476,0.522-9.332-2.264-13.092c-2.786-3.759-7.189-5.976-11.867-5.976
	C434.471,153.701,241.772,153.701,178.975,153.701z"/>
<path style="fill:#57565C;" d="M451.747,398.657H180.609c-7.363,0-13.86-4.813-16.003-11.858L83.382,119.925H16.728
	C7.49,119.925,0,112.435,0,103.196s7.49-16.728,16.728-16.728h79.049c7.363,0,13.86,4.813,16.003,11.858l81.223,266.876h258.743
	c9.238,0,16.728,7.49,16.728,16.728C468.475,391.169,460.986,398.657,451.747,398.657z"/>
<path style="fill:#333233;" d="M242.717,466.313c-23.572,0-42.75-19.177-42.75-42.75s19.177-42.75,42.75-42.75
	c23.572,0,42.75,19.177,42.75,42.75S266.288,466.313,242.717,466.313z M242.717,414.27c-5.124,0-9.293,4.169-9.293,9.293
	s4.169,9.293,9.293,9.293s9.293-4.169,9.293-9.293S247.84,414.27,242.717,414.27z"/>
<path style="fill:#242424;" d="M242.717,380.814C242.717,380.814,242.716,380.814,242.717,380.814v33.456l0,0
	c5.124,0,9.293,4.169,9.293,9.293s-4.169,9.293-9.293,9.293l0,0v33.456l0,0c23.572,0,42.75-19.177,42.75-42.75
	C285.466,399.991,266.288,380.814,242.717,380.814z"/>
<path style="fill:#333233;" d="M382.119,466.313c-23.572,0-42.75-19.177-42.75-42.75s19.177-42.75,42.75-42.75
	s42.75,19.177,42.75,42.75S405.69,466.313,382.119,466.313z M382.119,414.27c-5.124,0-9.293,4.169-9.293,9.293
	s4.169,9.293,9.293,9.293s9.293-4.169,9.293-9.293S387.242,414.27,382.119,414.27z"/>
<path style="fill:#242424;" d="M382.119,380.814C382.119,380.814,382.118,380.814,382.119,380.814v33.456l0,0
	c5.124,0,9.293,4.169,9.293,9.293s-4.169,9.293-9.293,9.293l0,0v33.456l0,0c23.572,0,42.75-19.177,42.75-42.75
	C424.868,399.991,405.69,380.814,382.119,380.814z"/>
<path style="fill:#F53000;" d="M509.096,159.678c-2.786-3.759-7.189-5.978-11.867-5.978c-31.381,0-95.253,0-159.127,0v185.515
	c45.521,0,91.055,0,111.655,0c6.495,0,12.237-4.247,14.128-10.46l47.474-155.985C512.723,168.294,511.882,163.437,509.096,159.678z"
	/>
<path style="fill:#F6F6F6;" d="M269.003,232.489v-24.192c0-16.867,11.074-23,25.555-23c14.312,0,25.556,6.134,25.556,23v24.192
	c0,16.867-11.245,23-25.556,23C280.077,255.489,269.003,249.355,269.003,232.489z M303.078,208.297c0-5.622-3.236-8.178-8.519-8.178
	c-5.281,0-8.347,2.556-8.347,8.178v24.192c0,5.623,3.067,8.178,8.347,8.178c5.282,0,8.519-2.555,8.519-8.178V208.297z
	 M372.93,187.341c0,1.023-0.171,2.215-0.681,3.236l-59.971,122.839c-1.192,2.555-4.431,4.259-7.667,4.259
	c-5.792,0-9.541-4.77-9.541-9.03c0-1.023,0.341-2.215,0.852-3.237l59.8-122.838c1.364-2.897,4.089-4.259,7.156-4.259
	C367.649,178.311,372.93,181.888,372.93,187.341z M347.205,287.35v-24.192c0-16.867,11.074-23,25.555-23
	c14.312,0,25.556,6.134,25.556,23v24.192c0,16.866-11.245,23-25.556,23C358.279,310.35,347.205,304.216,347.205,287.35z
	 M381.279,263.156c0-5.623-3.236-8.178-8.519-8.178c-5.281,0-8.347,2.555-8.347,8.178v24.192c0,5.622,3.067,8.178,8.347,8.178
	c5.282,0,8.519-2.556,8.519-8.178V263.156z"/>
<g>
</g>
<g>
</g>
<g>
</g>
<g>
</g>
<g>
</g>
<g>
</g>
<g>
</g>
<g>
</g>
<g>
</g>
<g>
</g>
<g>
</g>
<g>
</g>
<g>
</g>
<g>
</g>
<g>
</g>
</svg>
