<?xml version="1.0" encoding="iso-8859-1"?>
<!-- Generator: Adobe Illustrator 19.0.0, SVG Export Plug-In . SVG Version: 6.00 Build 0)  -->
<svg version="1.1" id="Layer_1" xmlns="http://www.w3.org/2000/svg" xmlns:xlink="http://www.w3.org/1999/xlink" x="0px" y="0px"
	 viewBox="0 0 512 512" style="enable-background:new 0 0 512 512;" xml:space="preserve">
<path style="fill:#B5CDDF;" d="M389.555,69.661H122.445c-28.085,0-50.852,22.767-50.852,50.851v0.001v30.998H94.04v343.77
	c0,9.234,7.486,16.718,16.718,16.718h290.484c9.233,0,16.718-7.485,16.718-16.718v-343.77h22.447v-30.998v-0.001
	C440.407,92.429,417.639,69.661,389.555,69.661z"/>
<g>
	<path style="fill:#C9E5F9;" d="M440.407,120.512c0-28.084-22.767-50.851-50.852-50.851H122.445
		c-28.085,0-50.852,22.767-50.852,50.851v0.001v30.998H94.04h323.92h22.447V120.512L440.407,120.512z"/>
	<path style="fill:#C9E5F9;" d="M256,69.661H122.445c-28.085,0-50.852,22.767-50.852,50.851v0.001v30.998H94.04v343.77
		c0,9.234,7.486,16.718,16.718,16.718H256V69.661z"/>
</g>
<path style="fill:#B5CDDF;" d="M256,69.661H122.445c-28.085,0-50.852,22.767-50.852,50.851v0.001v30.998H94.04H256V69.661z"/>
<g>
	<path style="fill:#088690;" d="M331.709,85.335h-31.347V56.92c0-14.101-11.472-25.573-25.573-25.573h-37.579
		c-14.101,0-25.573,11.472-25.573,25.573v28.415h-31.347V56.92c0-31.386,25.534-56.92,56.92-56.92h37.579
		c31.386,0,56.92,25.534,56.92,56.92V85.335z"/>
	<rect x="161.991" y="201.32" style="fill:#088690;" width="31.347" height="260.859"/>
	<rect x="240.327" y="201.32" style="fill:#088690;" width="31.347" height="260.859"/>
	<rect x="318.652" y="201.32" style="fill:#088690;" width="31.347" height="260.859"/>
</g>
<g>
</g>
<g>
</g>
<g>
</g>
<g>
</g>
<g>
</g>
<g>
</g>
<g>
</g>
<g>
</g>
<g>
</g>
<g>
</g>
<g>
</g>
<g>
</g>
<g>
</g>
<g>
</g>
<g>
</g>
</svg>
