<?xml version="1.0" encoding="iso-8859-1"?>
<!-- Generator: Adobe Illustrator 19.0.0, SVG Export Plug-In . SVG Version: 6.00 Build 0)  -->
<svg version="1.1" id="Capa_1" xmlns="http://www.w3.org/2000/svg" xmlns:xlink="http://www.w3.org/1999/xlink" x="0px" y="0px"
	 viewBox="0 0 512 512" style="enable-background:new 0 0 512 512;" xml:space="preserve">
<g>
	<g>
		<path style="fill:#5C546A;" d="M240,136H64c-8.837,0-16-7.163-16-16V40c0-8.837,7.163-16,16-16h176c8.837,0,16,7.163,16,16v80
			C256,128.837,248.837,136,240,136z"/>
	</g>
	<g>
		<rect x="136" y="136" style="fill:#5C546A;" width="32" height="40"/>
	</g>
	<g>
		<path style="fill:#8A8895;" d="M48,328V200c0-13.255,10.745-24,24-24h368c13.255,0,24,10.745,24,24v128H48z"/>
	</g>
	<g>
		<path style="fill:#00E58B;" d="M264,304H80c-4.418,0-8-3.582-8-8v-88c0-4.418,3.582-8,8-8h184c4.418,0,8,3.582,8,8v88
			C272,300.418,268.418,304,264,304z"/>
	</g>
	<g>
		<path style="fill:#5C546A;" d="M472,328H40c-22.055,0-40,17.945-40,40v80c0,22.055,17.945,40,40,40h432c22.055,0,40-17.945,40-40
			v-80C512,345.945,494.055,328,472,328z"/>
	</g>
	<g>
		<path style="fill:#8A8895;" d="M440,376H64c-13.234,0-24,10.766-24,24v88h16v-88c0-4.414,3.586-8,8-8h112v16
			c0,8.836,7.164,16,16,16h128c8.836,0,16-7.164,16-16v-16h104c4.414,0,8,3.586,8,8v88h16v-88C464,386.766,453.234,376,440,376z"/>
	</g>
	<g>
		<path style="fill:#00E58B;" d="M224,112H80c-4.418,0-8-3.582-8-8V56c0-4.418,3.582-8,8-8h144c4.418,0,8,3.582,8,8v48
			C232,108.418,228.418,112,224,112z"/>
	</g>
	<g>
		<g>
			<path style="fill:#5C546A;" d="M112,88h-8c-4.422,0-8-3.578-8-8s3.578-8,8-8h8c4.422,0,8,3.578,8,8S116.422,88,112,88z"/>
		</g>
	</g>
	<g>
		<g>
			<path style="fill:#5C546A;" d="M200,88h-56c-4.422,0-8-3.578-8-8s3.578-8,8-8h56c4.422,0,8,3.578,8,8S204.422,88,200,88z"/>
		</g>
	</g>
	<g>
		<path style="fill:#5C546A;" d="M320,224h-16c-4.418,0-8-3.582-8-8v-8c0-4.418,3.582-8,8-8h16c4.418,0,8,3.582,8,8v8
			C328,220.418,324.418,224,320,224z"/>
	</g>
	<g>
		<path style="fill:#5C546A;" d="M368,224h-16c-4.418,0-8-3.582-8-8v-8c0-4.418,3.582-8,8-8h16c4.418,0,8,3.582,8,8v8
			C376,220.418,372.418,224,368,224z"/>
	</g>
	<g>
		<path style="fill:#5C546A;" d="M416,224h-16c-4.418,0-8-3.582-8-8v-8c0-4.418,3.582-8,8-8h16c4.418,0,8,3.582,8,8v8
			C424,220.418,420.418,224,416,224z"/>
	</g>
	<g>
		<path style="fill:#5C546A;" d="M320,264h-16c-4.418,0-8-3.582-8-8v-8c0-4.418,3.582-8,8-8h16c4.418,0,8,3.582,8,8v8
			C328,260.418,324.418,264,320,264z"/>
	</g>
	<g>
		<path style="fill:#5C546A;" d="M368,264h-16c-4.418,0-8-3.582-8-8v-8c0-4.418,3.582-8,8-8h16c4.418,0,8,3.582,8,8v8
			C376,260.418,372.418,264,368,264z"/>
	</g>
	<g>
		<path style="fill:#5C546A;" d="M416,264h-16c-4.418,0-8-3.582-8-8v-8c0-4.418,3.582-8,8-8h16c4.418,0,8,3.582,8,8v8
			C424,260.418,420.418,264,416,264z"/>
	</g>
	<g>
		<path style="fill:#5C546A;" d="M320,304h-16c-4.418,0-8-3.582-8-8v-8c0-4.418,3.582-8,8-8h16c4.418,0,8,3.582,8,8v8
			C328,300.418,324.418,304,320,304z"/>
	</g>
	<g>
		<path style="fill:#73D14F;" d="M368,304h-16c-4.418,0-8-3.582-8-8v-8c0-4.418,3.582-8,8-8h16c4.418,0,8,3.582,8,8v8
			C376,300.418,372.418,304,368,304z"/>
	</g>
	<g>
		<path style="fill:#FF4F19;" d="M416,304h-16c-4.418,0-8-3.582-8-8v-8c0-4.418,3.582-8,8-8h16c4.418,0,8,3.582,8,8v8
			C424,300.418,420.418,304,416,304z"/>
	</g>
	<g>
		<g>
			<path style="fill:#5C546A;" d="M152,248h-40c-4.422,0-8-3.578-8-8s3.578-8,8-8h40c4.422,0,8,3.578,8,8S156.422,248,152,248z"/>
		</g>
	</g>
	<g>
		<g>
			<path style="fill:#5C546A;" d="M192,272h-80c-4.422,0-8-3.578-8-8s3.578-8,8-8h80c4.422,0,8,3.578,8,8S196.422,272,192,272z"/>
		</g>
	</g>
	<g>
		<g>
			<path style="fill:#FFFFFF;" d="M232,272h-8c-4.422,0-8-3.578-8-8s3.578-8,8-8h8c4.422,0,8,3.578,8,8S236.422,272,232,272z"/>
		</g>
	</g>
	<g>
		<g>
			<path style="fill:#FFFFFF;" d="M232,248h-8c-4.422,0-8-3.578-8-8s3.578-8,8-8h8c4.422,0,8,3.578,8,8S236.422,248,232,248z"/>
		</g>
	</g>
</g>
<g>
</g>
<g>
</g>
<g>
</g>
<g>
</g>
<g>
</g>
<g>
</g>
<g>
</g>
<g>
</g>
<g>
</g>
<g>
</g>
<g>
</g>
<g>
</g>
<g>
</g>
<g>
</g>
<g>
</g>
</svg>
