<?xml version="1.0" encoding="iso-8859-1"?>
<!-- Generator: Adobe Illustrator 19.0.0, SVG Export Plug-In . SVG Version: 6.00 Build 0)  -->
<svg version="1.1" id="Layer_1" xmlns="http://www.w3.org/2000/svg" xmlns:xlink="http://www.w3.org/1999/xlink" x="0px" y="0px"
	 viewBox="0 0 512.001 512.001" style="enable-background:new 0 0 512.001 512.001;" xml:space="preserve">
<path style="fill:#F53000;" d="M404.431,322.838c-1.794-3.658-5.513-5.977-9.588-5.977h-37.666v-6.506
	c0-12.324-9.991-22.316-22.316-22.316H177.14c-12.324,0-22.315,9.991-22.315,22.316v6.506h-37.667c-4.074,0-7.794,2.319-9.588,5.977
	c-1.794,3.658-1.35,8.018,1.144,11.239l131.964,170.41c3.67,4.74,9.327,7.514,15.322,7.514s11.651-2.775,15.322-7.514
	l131.965-170.41C405.781,330.856,406.224,326.496,404.431,322.838z"/>
<path style="fill:#3E3E42;" d="M198.513,179.428c-12.307,0-22.024,16.194-22.024,27.206c0,20.729,31.741,40.809,70.606,42.104v8.096
	c0,4.535,5.182,8.745,12.307,8.745c6.154,0,12.307-4.21,12.307-8.745v-9.393c37.893-6.154,63.804-30.444,63.804-70.605
	c0-43.723-34.331-58.946-63.804-69.957V59.594c21.052,1.619,27.206,11.984,37.893,11.984c14.251,0,20.081-17.814,20.081-26.559
	c0-22.348-37.894-27.529-57.973-28.178V8.745C271.71,4.21,265.556,0,259.403,0c-7.126,0-12.307,4.21-12.307,8.745v9.068
	c-34.33,4.858-64.775,24.615-64.775,65.747c0,41.456,34.977,55.382,64.775,66.719v52.468
	C223.127,198.537,212.115,179.428,198.513,179.428z M268.471,159.024c11.659,5.505,19.757,12.307,19.757,22.996
	c0,11.66-8.746,17.814-19.757,20.405V159.024L268.471,159.024z M229.605,78.703c0-7.773,6.154-15.222,20.729-18.138v38.541
	C238.025,93.925,229.605,88.095,229.605,78.703z"/>
<path style="fill:#2D2E30;" d="M271.709,106.88V59.594c21.052,1.619,27.206,11.984,37.893,11.984
	c14.251,0,20.081-17.814,20.081-26.559c0-22.348-37.894-27.529-57.973-28.178V8.745c0-4.269-5.455-8.249-11.229-8.7v265.489
	c5.774-0.451,11.229-4.431,11.229-8.7v-9.393c37.893-6.154,63.803-30.444,63.803-70.605
	C335.514,133.114,301.182,117.892,271.709,106.88z M268.471,202.424v-43.4c11.659,5.505,19.757,12.307,19.757,22.996
	C288.226,193.679,279.482,199.833,268.471,202.424z"/>
<path style="fill:#BF2717;" d="M404.431,322.838c-1.794-3.658-5.513-5.977-9.588-5.977h-37.666v-6.506
	c0-12.324-9.991-22.316-22.316-22.316H256V512c5.995,0,11.651-2.775,15.322-7.514l131.965-170.409
	C405.781,330.856,406.224,326.496,404.431,322.838z"/>
<g>
</g>
<g>
</g>
<g>
</g>
<g>
</g>
<g>
</g>
<g>
</g>
<g>
</g>
<g>
</g>
<g>
</g>
<g>
</g>
<g>
</g>
<g>
</g>
<g>
</g>
<g>
</g>
<g>
</g>
</svg>
