<?xml version="1.0" encoding="iso-8859-1"?>
<!-- Generator: Adobe Illustrator 19.0.0, SVG Export Plug-In . SVG Version: 6.00 Build 0)  -->
<svg version="1.1" id="Layer_1" xmlns="http://www.w3.org/2000/svg" xmlns:xlink="http://www.w3.org/1999/xlink" x="0px" y="0px"
	 viewBox="0 0 511.976 511.976" style="enable-background:new 0 0 511.976 511.976;" xml:space="preserve">
<g>
	<rect x="177.52" y="248" style="fill:#CCCCCC;" width="187.144" height="16"/>
	<polygon style="fill:#CCCCCC;" points="364.664,445.464 280.024,445.464 280.024,66.56 364.664,66.56 364.664,82.56 296.024,82.56 
		296.024,429.464 364.664,429.464 	"/>
</g>
<rect x="395.44" y="197.728" style="fill:#BBBBBB;" width="116.536" height="116.536"/>
<rect x="395.44" style="fill:#333333;" width="116.536" height="116.536"/>
<rect x="395.44" y="395.44" style="fill:#E21B1B;" width="116.536" height="116.536"/>
<circle cx="175.128" cy="346.48" r="28.592"/>
<circle style="fill:#999999;" cx="175.128" cy="346.48" r="13.888"/>
<polygon points="67.4,207.32 48.616,151.752 0,151.752 0,136.904 59.28,136.904 81.464,202.56 "/>
<circle cx="88.88" cy="346.48" r="28.592"/>
<polygon style="fill:#FFFFFF;" points="68.664,301.12 36.816,198.848 231.896,198.848 195.448,301.12 "/>
<g>
	<path style="fill:#E21B1B;" d="M226.224,202.848l-33.6,94.272H71.6l-29.352-94.272h184 M237.592,194.848H31.376L65.712,305.12
		h132.552L237.6,194.848H237.592z"/>
	<polygon style="fill:#E21B1B;" points="218.16,233.88 170.328,233.88 158.824,254.08 111.472,254.08 115.944,268.056 
		204.36,268.056 	"/>
</g>
<circle style="fill:#999999;" cx="88.88" cy="346.48" r="13.888"/>
<g>
</g>
<g>
</g>
<g>
</g>
<g>
</g>
<g>
</g>
<g>
</g>
<g>
</g>
<g>
</g>
<g>
</g>
<g>
</g>
<g>
</g>
<g>
</g>
<g>
</g>
<g>
</g>
<g>
</g>
</svg>
