<?xml version="1.0" encoding="iso-8859-1"?>
<!-- Generator: Adobe Illustrator 19.0.0, SVG Export Plug-In . SVG Version: 6.00 Build 0)  -->
<svg version="1.1" id="Layer_1" xmlns="http://www.w3.org/2000/svg" xmlns:xlink="http://www.w3.org/1999/xlink" x="0px" y="0px"
	 viewBox="0 0 512 512" style="enable-background:new 0 0 512 512;" xml:space="preserve">
<polygon points="104,198.4 93.456,186.368 258.824,41.336 418.44,186.464 407.688,198.312 258.632,62.776 "/>
<circle cx="258.72" cy="64.512" r="37.48"/>
<rect y="177.232" style="fill:#FF583E;" width="512" height="307.736"/>
<g>
	<path style="fill:#FFFFFF;" d="M86.024,369.336c7.984,4.08,20.24,8.168,32.888,8.168c13.616,0,20.816-5.64,20.816-14.2
		c0-8.176-6.224-12.84-21.976-18.48c-21.8-7.592-36-19.656-36-38.728c0-22.368,18.672-39.496,49.616-39.496
		c14.784,0,25.688,3.12,33.464,6.624l-6.608,23.936c-5.264-2.528-14.592-6.232-27.432-6.232s-19.072,5.84-19.072,12.648
		c0,8.368,7.4,12.064,24.32,18.488c23.16,8.552,34.056,20.616,34.056,39.112c0,21.992-16.928,40.664-52.928,40.664
		c-14.992,0-29.776-3.888-37.168-7.968L86.024,369.336z"/>
	<path style="fill:#FFFFFF;" d="M244.808,399.88l-1.752-9.536h-0.576c-6.224,7.592-15.952,11.672-27.24,11.672
		c-19.272,0-30.752-14.008-30.752-29.184c0-24.712,22.184-36.584,55.848-36.384v-1.36c0-5.064-2.72-12.256-17.312-12.256
		c-9.728,0-20.048,3.304-26.28,7.192l-5.44-19.064c6.624-3.696,19.656-8.368,36.968-8.368c31.72,0,41.832,18.688,41.832,41.056
		v33.08c0,9.152,0.392,17.904,1.36,23.16h-26.656V399.88z M241.312,354.928c-15.56-0.192-27.632,3.512-27.632,14.992
		c0,7.584,5.056,11.28,11.672,11.28c7.384,0,13.424-4.864,15.368-10.888c0.392-1.552,0.584-3.312,0.584-5.064v-10.32H241.312z"/>
	<path style="fill:#FFFFFF;" d="M293.456,261.728h29.576V399.88h-29.576V261.728z"/>
	<path style="fill:#FFFFFF;" d="M369.736,361.744c0.976,12.256,13.04,18.088,26.848,18.088c10.12,0,18.288-1.36,26.264-3.888
		l3.888,20.048c-9.72,3.888-21.592,5.832-34.432,5.832c-32.304,0-50.784-18.672-50.784-48.456c0-24.128,14.984-50.784,48.056-50.784
		c30.752,0,42.424,23.936,42.424,47.48c0,5.056-0.584,9.536-0.976,11.672h-61.288V361.744z M404.568,341.504
		c0-7.192-3.12-19.256-16.744-19.256c-12.456,0-17.512,11.288-18.288,19.256H404.568z"/>
</g>
<g>
</g>
<g>
</g>
<g>
</g>
<g>
</g>
<g>
</g>
<g>
</g>
<g>
</g>
<g>
</g>
<g>
</g>
<g>
</g>
<g>
</g>
<g>
</g>
<g>
</g>
<g>
</g>
<g>
</g>
</svg>
