<svg xmlns="http://www.w3.org/2000/svg" xmlns:xlink="http://www.w3.org/1999/xlink" width="521" height="376" fill="none" xmlns:v="https://vecta.io/nano"><style><![CDATA[.B{fill:#d9d9d9}.C{fill-opacity:.5}.D{fill:#1d1e22}.E{fill:#d4d6de}.F{fill:#444857}.G{color-interpolation-filters:sRGB}]]></style><g filter="url(#A)"><rect x="8" y="4" width="505" height="304.92" rx="9" fill="#060606"/><path fill="#fff" d="M8 142.063h505v154.306H8z"/><rect x="23.504" y="29.102" width="149.137" height="102.624" rx="4" class="D"/><path d="M27.934 17.336a3 3 0 0 1 3-3h44.205a3 3 0 0 1 3 3v11.766H27.934V17.336z" class="D"/><path d="M44.843 25.075v-6.3h.756v2.781h3.267v-2.781h.756v6.3h-.756v-2.898h-3.267v2.898h-.756zm7.584 0v-5.679h-1.881v-.621h4.518v.621h-1.881v5.679h-.756zm3.56 0v-6.3h.882l2.268 4.392 2.25-4.392h.891v6.3h-.756v-4.95l-2.106 4.05h-.567l-2.106-4.041v4.941h-.756zm7.62 0v-6.3h.756v5.697h2.934v.603h-3.69z" class="E"/><rect x="31.626" y="18.028" width="8.121" height="8.121" rx="3" fill="#ff3b41"/><rect x="346.143" y="29.102" width="149.137" height="102.624" rx="4" class="D"/><path d="M350.573 17.336a3 3 0 0 1 3-3h44.205a3 3 0 0 1 3 3v11.766h-50.205V17.336z" class="D"/><path d="M368.886 25.183c-.57 0-1.017-.159-1.341-.477s-.486-.759-.486-1.323h.765c0 .318.078.585.234.801s.429.324.819.324c.378 0 .639-.105.783-.315.15-.21.225-.471.225-.783v-4.635h.756v4.635c0 .558-.156.993-.468 1.305-.306.312-.735.468-1.287.468zm5.094 0c-.462 0-.864-.084-1.206-.252s-.606-.402-.792-.702a1.94 1.94 0 0 1-.279-1.044h.792a1.41 1.41 0 0 0 .171.684c.114.204.279.369.495.495.222.12.495.18.819.18.426 0 .756-.102.99-.306s.351-.459.351-.765c0-.252-.054-.453-.162-.603-.108-.156-.255-.282-.441-.378-.18-.096-.39-.18-.63-.252l-.738-.243c-.486-.168-.846-.375-1.08-.621-.234-.252-.351-.579-.351-.981-.006-.336.072-.633.234-.891.162-.264.39-.468.684-.612.3-.15.654-.225 1.062-.225.402 0 .75.075 1.044.225.3.15.531.357.693.621a1.7 1.7 0 0 1 .261.9h-.792c0-.174-.045-.345-.135-.513-.09-.174-.228-.315-.414-.423-.18-.108-.408-.162-.684-.162-.342-.006-.624.081-.846.261-.216.18-.324.429-.324.747 0 .27.075.477.225.621.156.144.372.264.648.36l.954.315a4.6 4.6 0 0 1 .81.378c.24.144.426.33.558.558.138.228.207.519.207.873 0 .3-.078.585-.234.855-.156.264-.393.48-.711.648-.312.168-.705.252-1.179.252z" class="E"/><rect x="354.265" y="18.028" width="8.121" height="8.121" rx="3" fill="#fccf00"/><rect x="184.455" y="29.102" width="149.137" height="102.624" rx="4" class="D"/><path d="M188.885 17.336a3 3 0 0 1 3-3h44.204a3 3 0 0 1 3 3v11.766h-50.204V17.336z" class="D"/><path d="M208.556 25.183c-.618 0-1.152-.135-1.602-.405-.444-.276-.789-.657-1.035-1.143-.246-.492-.369-1.062-.369-1.71 0-.642.123-1.206.369-1.692.246-.492.591-.876 1.035-1.152.45-.276.984-.414 1.602-.414.72 0 1.305.174 1.755.522.456.342.747.822.873 1.44h-.837c-.096-.39-.294-.702-.594-.936-.294-.24-.693-.36-1.197-.36-.45 0-.843.105-1.179.315-.336.204-.597.501-.783.891-.18.384-.27.846-.27 1.386s.09 1.005.27 1.395c.186.384.447.681.783.891.336.204.729.306 1.179.306.504 0 .903-.114 1.197-.342.3-.234.498-.543.594-.927h.837c-.126.606-.417 1.08-.873 1.422-.45.342-1.035.513-1.755.513zm5.722 0c-.462 0-.864-.084-1.206-.252s-.606-.402-.792-.702a1.94 1.94 0 0 1-.279-1.044h.792a1.41 1.41 0 0 0 .171.684c.114.204.279.369.495.495.222.12.495.18.819.18.426 0 .756-.102.99-.306s.351-.459.351-.765c0-.252-.054-.453-.162-.603-.108-.156-.255-.282-.441-.378-.18-.096-.39-.18-.63-.252l-.738-.243c-.486-.168-.846-.375-1.08-.621-.234-.252-.351-.579-.351-.981-.006-.336.072-.633.234-.891.162-.264.39-.468.684-.612.3-.15.654-.225 1.062-.225.402 0 .75.075 1.044.225.3.15.531.357.693.621a1.7 1.7 0 0 1 .261.9h-.792c0-.174-.045-.345-.135-.513-.09-.174-.228-.315-.414-.423-.18-.108-.408-.162-.684-.162-.342-.006-.624.081-.846.261-.216.18-.324.429-.324.747 0 .27.075.477.225.621.156.144.372.264.648.36l.954.315a4.6 4.6 0 0 1 .81.378c.24.144.426.33.558.558.138.228.207.519.207.873 0 .3-.078.585-.234.855-.156.264-.393.48-.711.648-.312.168-.705.252-1.179.252zm5.203 0c-.462 0-.864-.084-1.206-.252s-.606-.402-.792-.702a1.94 1.94 0 0 1-.279-1.044h.792a1.41 1.41 0 0 0 .171.684c.114.204.279.369.495.495.222.12.495.18.819.18.426 0 .756-.102.99-.306s.351-.459.351-.765c0-.252-.054-.453-.162-.603-.108-.156-.255-.282-.441-.378-.18-.096-.39-.18-.63-.252l-.738-.243c-.486-.168-.846-.375-1.08-.621-.234-.252-.351-.579-.351-.981-.006-.336.072-.633.234-.891.162-.264.39-.468.684-.612.3-.15.654-.225 1.062-.225.402 0 .75.075 1.044.225.3.15.531.357.693.621a1.7 1.7 0 0 1 .261.9h-.792c0-.174-.045-.345-.135-.513-.09-.174-.228-.315-.414-.423-.18-.108-.408-.162-.684-.162-.342-.006-.624.081-.846.261-.216.18-.324.429-.324.747 0 .27.075.477.225.621.156.144.372.264.648.36l.954.315a4.6 4.6 0 0 1 .81.378c.24.144.426.33.558.558.138.228.207.519.207.873 0 .3-.078.585-.234.855-.156.264-.393.48-.711.648-.312.168-.705.252-1.179.252z" class="E"/><rect x="192.576" y="18.028" width="8.121" height="8.121" rx="3" fill="#00bfff"/><rect x="31.626" y="37.962" width="93.765" height="3.692" rx="1.846" class="B C"/><rect x="39.747" y="46.083" width="68.662" height="3.692" rx="1.846" class="B C"/><rect x="39.747" y="86.69" width="21.411" height="3.692" rx="1.846" class="B C"/><rect x="47.13" y="54.205" width="14.028" height="3.692" rx="1.846" class="B C"/><rect x="39.747" y="78.569" width="18.458" height="3.692" rx="1.846" class="B C"/><rect x="31.626" y="94.073" width="14.028" height="3.692" rx="1.846" class="B C"/><rect x="47.13" y="70.447" width="17.719" height="3.692" rx="1.846" class="B C"/><rect x="53.037" y="62.326" width="27.317" height="3.692" rx="1.846" class="B C"/><rect x="192.576" y="37.962" width="21.411" height="3.692" rx="1.846" class="B C"/><rect x="200.697" y="46.083" width="47.252" height="3.692" rx="1.846" class="B C"/><rect x="200.697" y="86.69" width="33.224" height="3.692" rx="1.846" class="B C"/><rect x="200.697" y="54.205" width="38.392" height="3.692" rx="1.846" class="B C"/><rect x="200.697" y="78.569" width="38.392" height="3.692" rx="1.846" class="B C"/><rect x="192.576" y="94.073" width="8.121" height="3.692" rx="1.846" class="B C"/><rect x="200.697" y="70.447" width="29.532" height="3.692" rx="1.846" class="B C"/><rect x="200.697" y="62.326" width="36.915" height="3.692" rx="1.846" class="B C"/><rect x="20.551" y="298.583" width="38.392" height="8.121" rx="4" class="F"/><rect x="63.373" y="298.583" width="29.532" height="8.121" rx="4" class="F"/><rect x="97.335" y="298.583" width="29.532" height="8.121" rx="4" class="F"/></g><rect x="185.425" y="156" width="149.5" height="8.896" rx="4.448" class="B"/><rect x="134" y="177.047" width="51.859" height="50.34" rx="4" fill="url(#C)"/><rect x="335.142" y="177.047" width="51.859" height="50.34" rx="4" fill="url(#D)"/><rect x="268.094" y="177.047" width="51.859" height="50.34" rx="4" fill="url(#E)"/><rect x="201.047" y="177.047" width="51.859" height="50.34" rx="4" fill="url(#F)"/><circle cx="259" cy="307" r="47.5" stroke="url(#G)"/><circle cx="259" cy="307" r="40.5" stroke="url(#H)"/><circle cx="259.5" cy="306.5" r="33" stroke="url(#I)"/><circle cx="259" cy="307" r="54.5" stroke="url(#J)"/><circle cx="259" cy="307" r="61.5" stroke="url(#K)"/><circle cx="259" cy="307" r="68.5" stroke="url(#L)"/><g filter="url(#B)"><rect x="72" y="278" width="378" height="57" rx="28.5" fill="#fff"/></g><path d="M131.568 307.75V313h-1.341v-11.636h1.341v4.272h.114a2.47 2.47 0 0 1 .92-1.074c.413-.268.962-.403 1.648-.403.595 0 1.116.119 1.562.358a2.41 2.41 0 0 1 1.04 1.085c.25.485.375 1.103.375 1.853V313h-1.341v-5.455c0-.693-.18-1.229-.539-1.607s-.851-.574-1.483-.574c-.44 0-.834.092-1.182.278s-.618.456-.818.813-.296.787-.296 1.295zm11.908-3.477v1.136h-4.523v-1.136h4.523zm-3.205-2.091h1.341v8.318c0 .379.055.663.165.852s.258.311.432.375a1.72 1.72 0 0 0 .562.091c.148 0 .269-.007.364-.023l.227-.045.273 1.205a2.74 2.74 0 0 1-.381.102c-.163.038-.369.057-.619.057a2.7 2.7 0 0 1-1.114-.245c-.36-.163-.659-.411-.897-.744s-.353-.754-.353-1.261v-8.682zm9.017 2.091v1.136h-4.522v-1.136h4.522zm-3.204-2.091h1.341v8.318c0 .379.055.663.164.852s.258.311.432.375.366.091.563.091c.148 0 .269-.007.363-.023l.228-.045.272 1.205a2.68 2.68 0 0 1-.38.102c-.163.038-.37.057-.62.057-.378 0-.75-.082-1.113-.245s-.659-.411-.898-.744-.352-.754-.352-1.261v-8.682zm5.221 14.091v-12h1.296v1.386h.159l.409-.579c.178-.239.432-.451.761-.637s.784-.284 1.353-.284c.735 0 1.382.184 1.943.551s.998.888 1.312 1.563.472 1.469.472 2.386c0 .924-.157 1.725-.472 2.403s-.75 1.197-1.306 1.569-1.199.551-1.927.551c-.56 0-1.009-.093-1.346-.279s-.597-.403-.779-.642l-.42-.602h-.114v4.614h-1.341zm1.319-7.637c0 .659.096 1.241.289 1.745s.476.892.847 1.176.826.42 1.364.42c.56 0 1.028-.147 1.403-.443s.663-.701.852-1.204.29-1.072.29-1.694c0-.613-.095-1.166-.284-1.659s-.468-.888-.847-1.176-.846-.437-1.414-.437c-.546 0-1.004.138-1.375.414s-.652.656-.841 1.148-.284 1.059-.284 1.71zm14.613-2.409l-1.204.341a2.23 2.23 0 0 0-.336-.585c-.143-.193-.34-.352-.59-.477s-.571-.188-.961-.188c-.534 0-.979.123-1.335.37s-.528.551-.528.926c0 .333.121.596.363.789s.622.355 1.137.483l1.295.319c.78.189 1.362.479 1.744.869s.574.884.574 1.494c0 .5-.144.947-.432 1.341s-.681.705-1.193.932-1.106.341-1.784.341c-.89 0-1.627-.193-2.21-.58s-.953-.95-1.108-1.693l1.273-.318c.121.47.35.822.687 1.057s.786.352 1.335.352c.625 0 1.122-.133 1.489-.398s.557-.591.557-.966c0-.303-.106-.556-.318-.761s-.538-.364-.978-.466l-1.454-.341c-.799-.189-1.386-.483-1.761-.88s-.557-.904-.557-1.506c0-.493.138-.928.415-1.307a2.82 2.82 0 0 1 1.142-.892c.484-.216 1.034-.324 1.647-.324.864 0 1.542.189 2.034.568s.849.879 1.057 1.5zm3.155 6.864c-.28 0-.521-.1-.722-.301a.99.99 0 0 1-.301-.722c0-.28.101-.521.301-.721s.442-.302.722-.302.521.101.722.302.301.441.301.721c0 .186-.048.356-.142.512s-.214.28-.37.375a.98.98 0 0 1-.511.136zm0-6.477c-.28 0-.521-.101-.722-.302s-.301-.441-.301-.721a.99.99 0 0 1 1.023-1.023.99.99 0 0 1 1.023 1.023c0 .186-.048.356-.142.511s-.214.281-.37.375c-.151.091-.322.137-.511.137zm7.543-5.796l-3.75 13.932h-1.228l3.75-13.932h1.228zm5.703 0l-3.75 13.932h-1.227l3.75-13.932h1.227zm5.135 12.364c-.818 0-1.523-.193-2.114-.58s-1.045-.918-1.364-1.596-.477-1.453-.477-2.324c0-.887.163-1.669.489-2.347s.788-1.214 1.375-1.596 1.28-.58 2.068-.58c.614 0 1.167.114 1.659.341a3.16 3.16 0 0 1 1.21.955c.315.409.51.886.586 1.431h-1.341c-.103-.397-.33-.75-.682-1.056s-.818-.466-1.409-.466c-.523 0-.981.136-1.375.409s-.695.649-.915 1.142-.324 1.062-.324 1.721c0 .675.106 1.262.318 1.762s.519.888.909 1.164.856.415 1.387.415c.348 0 .665-.06.949-.182s.524-.295.721-.522.337-.5.421-.818h1.341c-.076.515-.264.979-.563 1.392s-.687.734-1.176.977-1.049.358-1.693.358zm8.937 0c-.788 0-1.479-.188-2.074-.563s-1.053-.899-1.386-1.574-.494-1.462-.494-2.363c0-.909.164-1.703.494-2.381s.795-1.204 1.386-1.579 1.286-.563 2.074-.563 1.478.188 2.068.563 1.057.901 1.387 1.579.5 1.472.5 2.381c0 .901-.167 1.689-.5 2.363s-.792 1.199-1.387 1.574-1.28.563-2.068.563zm0-1.205c.599 0 1.091-.153 1.478-.46a2.71 2.71 0 0 0 .857-1.21c.186-.5.279-1.042.279-1.625s-.093-1.127-.279-1.631-.471-.911-.857-1.221-.879-.466-1.478-.466-1.091.155-1.477.466-.672.717-.858 1.221-.278 1.047-.278 1.631.092 1.125.278 1.625a2.72 2.72 0 0 0 .858 1.21c.386.307.879.46 1.477.46zm9.297 1.205c-.727 0-1.369-.184-1.926-.551s-.992-.894-1.307-1.569-.471-1.479-.471-2.403c0-.917.157-1.712.471-2.386s.752-1.195 1.313-1.563 1.208-.551 1.943-.551c.568 0 1.017.095 1.346.284s.588.398.762.637l.415.579h.113v-4.295h1.341V313h-1.295v-1.341h-.159c-.099.159-.239.36-.421.602s-.441.453-.778.642-.786.279-1.347.279zm.182-1.205c.538 0 .992-.14 1.364-.42s.653-.676.846-1.176.29-1.086.29-1.745c0-.651-.095-1.221-.284-1.71s-.47-.875-.841-1.148-.83-.414-1.375-.414c-.568 0-1.042.145-1.421.437s-.657.68-.846 1.176-.279 1.046-.279 1.659c0 .622.095 1.186.285 1.694s.477.905.852 1.204.848.443 1.409.443zm10.119 1.205c-.841 0-1.566-.186-2.176-.557s-1.074-.898-1.403-1.568-.489-1.459-.489-2.352.163-1.682.489-2.364.788-1.22 1.375-1.602 1.28-.58 2.068-.58a4.15 4.15 0 0 1 1.346.227c.444.152.847.398 1.211.739s.653.784.869 1.341.324 1.242.324 2.057v.568h-6.727v-1.159h5.363c0-.493-.098-.932-.295-1.318a2.22 2.22 0 0 0-.83-.915c-.356-.224-.776-.335-1.261-.335-.534 0-.996.132-1.386.397s-.684.603-.893 1.023a3.01 3.01 0 0 0-.312 1.352v.773c0 .659.114 1.218.341 1.676s.551.801.96 1.04.885.352 1.426.352c.353 0 .671-.049.955-.147s.536-.254.744-.455.369-.458.483-.761l1.296.363c-.137.44-.366.826-.688 1.159s-.72.587-1.193.773-1.006.273-1.597.273zm5.654 3.091v-12h1.295v1.386h.159l.409-.579c.178-.239.432-.451.762-.637s.784-.284 1.352-.284c.735 0 1.382.184 1.943.551s.998.888 1.313 1.563.471 1.469.471 2.386c0 .924-.157 1.725-.471 2.403s-.75 1.197-1.307 1.569-1.199.551-1.926.551c-.561 0-1.01-.093-1.347-.279s-.597-.403-.778-.642l-.421-.602h-.113v4.614h-1.341zm1.318-7.637c0 .659.096 1.241.29 1.745s.475.892.846 1.176.826.42 1.364.42c.56 0 1.028-.147 1.403-.443s.663-.701.853-1.204.289-1.072.289-1.694c0-.613-.094-1.166-.284-1.659s-.468-.888-.846-1.176-.847-.437-1.415-.437c-.546 0-1.004.138-1.375.414s-.652.656-.841 1.148-.284 1.059-.284 1.71zm12.091 4.546c-.841 0-1.567-.186-2.176-.557s-1.074-.898-1.404-1.568-.488-1.459-.488-2.352.162-1.682.488-2.364.788-1.22 1.375-1.602 1.28-.58 2.068-.58a4.15 4.15 0 0 1 1.347.227c.443.152.847.398 1.21.739s.654.784.87 1.341.323 1.242.323 2.057v.568h-6.727v-1.159h5.364c0-.493-.099-.932-.296-1.318s-.469-.692-.829-.915-.777-.335-1.262-.335c-.534 0-.996.132-1.386.397s-.684.603-.892 1.023a3.01 3.01 0 0 0-.313 1.352v.773c0 .659.114 1.218.341 1.676a2.46 2.46 0 0 0 .961 1.04c.409.235.884.352 1.426.352.352 0 .67-.049.954-.147a2.06 2.06 0 0 0 .745-.455c.208-.205.369-.458.483-.761l1.295.363a2.87 2.87 0 0 1-.687 1.159 3.35 3.35 0 0 1-1.194.773c-.473.182-1.005.273-1.596.273zm6.994-5.432V313h-1.341v-8.727h1.296v1.363h.113c.205-.443.515-.799.932-1.068s.955-.409 1.614-.409c.591 0 1.108.121 1.551.364.443.238.788.602 1.034 1.091s.369 1.098.369 1.841V313h-1.341v-5.455c0-.685-.178-1.219-.534-1.602s-.844-.579-1.466-.579c-.428 0-.81.092-1.147.278s-.597.456-.79.813-.29.787-.29 1.295zm8.996 5.341c-.281 0-.521-.1-.722-.301s-.301-.442-.301-.722a.98.98 0 0 1 .301-.721c.201-.201.441-.302.722-.302a.98.98 0 0 1 1.023 1.023c0 .186-.048.356-.143.512a1.06 1.06 0 0 1-.369.375.98.98 0 0 1-.511.136zm3.429-.091v-8.727h1.341V313h-1.341zm.682-10.182c-.262 0-.487-.089-.677-.267a.86.86 0 0 1-.278-.642.86.86 0 0 1 .278-.642c.19-.178.415-.267.677-.267s.484.089.67.267a.85.85 0 0 1 .284.642.85.85 0 0 1-.284.642c-.186.178-.409.267-.67.267zm6.66 10.364c-.788 0-1.479-.188-2.074-.563s-1.053-.899-1.386-1.574-.494-1.462-.494-2.363c0-.909.164-1.703.494-2.381s.795-1.204 1.386-1.579 1.286-.563 2.074-.563 1.477.188 2.068.563 1.057.901 1.387 1.579.5 1.472.5 2.381c0 .901-.167 1.689-.5 2.363s-.792 1.199-1.387 1.574-1.28.563-2.068.563zm0-1.205c.599 0 1.091-.153 1.477-.46s.673-.71.858-1.21.279-1.042.279-1.625-.093-1.127-.279-1.631-.471-.911-.858-1.221-.878-.466-1.477-.466-1.091.155-1.477.466-.673.717-.858 1.221-.279 1.047-.279 1.631.093 1.125.279 1.625.471.903.858 1.21.879.46 1.477.46zm10.115-11.159l-3.75 13.932h-1.227l3.75-13.932h1.227zm5.112 15.637c-.647 0-1.204-.084-1.67-.25a3.55 3.55 0 0 1-1.165-.648 3.54 3.54 0 0 1-.733-.852l1.068-.75.461.545c.185.208.439.388.761.54s.752.233 1.278.233c.705 0 1.286-.171 1.745-.512s.687-.875.687-1.602v-1.773h-.113c-.099.159-.239.356-.421.591s-.436.438-.773.62-.784.267-1.352.267c-.704 0-1.337-.167-1.898-.5-.556-.334-.998-.819-1.323-1.455s-.483-1.409-.483-2.318c0-.894.157-1.672.471-2.335s.752-1.182 1.313-1.546 1.208-.551 1.943-.551c.568 0 1.019.095 1.352.284s.595.398.773.637l.42.579h.137v-1.386h1.295v8.977c0 .75-.17 1.36-.511 1.83s-.792.82-1.364 1.039-1.201.336-1.898.336zm-.045-4.796c.538 0 .992-.123 1.364-.369s.653-.601.846-1.063.29-1.015.29-1.659c0-.629-.095-1.184-.284-1.665s-.47-.858-.841-1.13-.83-.409-1.375-.409c-.568 0-1.042.144-1.421.431s-.657.675-.846 1.16-.279 1.022-.279 1.613c0 .606.095 1.142.285 1.608s.477.826.852 1.091.848.392 1.409.392zm11.773-2.227v-5.159h1.341V313h-1.341v-1.477h-.091c-.205.443-.523.82-.955 1.13s-.977.461-1.636.461c-.546 0-1.03-.12-1.455-.358s-.757-.606-1-1.091-.363-1.104-.363-1.847v-5.545h1.341v5.454c0 .637.178 1.144.534 1.523s.818.568 1.375.568c.333 0 .672-.085 1.017-.256s.64-.431.875-.784.358-.801.358-1.346zm3.797 3.568v-8.727h1.34V313h-1.34zm.681-10.182c-.261 0-.486-.089-.676-.267a.86.86 0 0 1-.278-.642.86.86 0 0 1 .278-.642c.19-.178.415-.267.676-.267s.485.089.671.267a.85.85 0 0 1 .284.642.85.85 0 0 1-.284.642c-.186.178-.409.267-.671.267zm10.252 1.455L301.589 313h-1.363l-3.227-8.727h1.454l2.409 6.954h.091l2.409-6.954h1.455zm1.77 8.727v-8.727h1.295v1.318h.091c.159-.432.447-.782.864-1.051a2.54 2.54 0 0 1 1.409-.404l.369.006.335.017v1.364a3.35 3.35 0 0 0-.312-.051c-.159-.027-.328-.04-.506-.04-.424 0-.803.089-1.136.267a2.01 2.01 0 0 0-.784.727c-.19.307-.284.657-.284 1.051V313h-1.341zm9.52-12.182l-3.75 13.932h-1.228l3.75-13.932h1.228zm1.589 15.455v-12h1.295v1.386h.16l.409-.579c.178-.239.431-.451.761-.637s.784-.284 1.352-.284c.735 0 1.383.184 1.943.551s.999.888 1.313 1.563.472 1.469.472 2.386c0 .924-.158 1.725-.472 2.403s-.75 1.197-1.307 1.569-1.199.551-1.926.551c-.561 0-1.009-.093-1.347-.279s-.596-.403-.778-.642l-.42-.602h-.114v4.614h-1.341zm1.318-7.637c0 .659.097 1.241.29 1.745s.475.892.847 1.176.825.42 1.363.42c.561 0 1.029-.147 1.404-.443s.662-.701.852-1.204.29-1.072.29-1.694c0-.613-.095-1.166-.284-1.659s-.468-.888-.847-1.176-.847-.437-1.415-.437c-.545 0-1.004.138-1.375.414s-.651.656-.841 1.148-.284 1.059-.284 1.71zm12.091 4.546c-.841 0-1.566-.186-2.176-.557s-1.074-.898-1.403-1.568-.489-1.459-.489-2.352.163-1.682.489-2.364.787-1.22 1.375-1.602 1.28-.58 2.068-.58a4.15 4.15 0 0 1 1.346.227c.444.152.847.398 1.211.739s.653.784.869 1.341.324 1.242.324 2.057v.568h-6.728v-1.159h5.364c0-.493-.098-.932-.295-1.318s-.47-.692-.83-.915-.776-.335-1.261-.335c-.534 0-.996.132-1.387.397-.386.262-.683.603-.892 1.023a3.01 3.01 0 0 0-.312 1.352v.773c0 .659.113 1.218.341 1.676s.551.801.96 1.04.884.352 1.426.352c.352 0 .671-.049.955-.147s.536-.254.744-.455.369-.458.483-.761l1.295.363a2.86 2.86 0 0 1-.687 1.159c-.322.33-.72.587-1.193.773s-1.006.273-1.597.273zm6.994-5.432V313h-1.34v-8.727h1.295v1.363h.114a2.49 2.49 0 0 1 .931-1.068c.417-.273.955-.409 1.614-.409.591 0 1.108.121 1.551.364.443.238.788.602 1.034 1.091s.37 1.098.37 1.841V313h-1.341v-5.455c0-.685-.178-1.219-.534-1.602s-.845-.579-1.466-.579c-.428 0-.811.092-1.148.278a1.99 1.99 0 0 0-.79.813c-.193.356-.29.787-.29 1.295zm12.133-6.932l-3.75 13.932h-1.228l3.75-13.932h1.228zm5.998 8.546h1.546l1.295 1.704.341.455 1.932 2.568h-1.546l-1.272-1.705-.319-.431-1.977-2.591zm5.591-2.182c0 1.227-.222 2.288-.665 3.182s-1.051 1.583-1.824 2.068-1.655.727-2.647.727-1.875-.242-2.648-.727-1.381-1.174-1.824-2.068-.665-1.955-.665-3.182.222-2.288.665-3.182 1.051-1.583 1.824-2.068 1.655-.727 2.648-.727 1.875.242 2.647.727 1.381 1.174 1.824 2.068.665 1.955.665 3.182zm-1.364 0c0-1.008-.168-1.858-.505-2.551s-.786-1.218-1.358-1.574-1.205-.534-1.909-.534a3.55 3.55 0 0 0-1.915.534c-.568.356-1.021.881-1.358 1.574s-.5 1.543-.5 2.551.167 1.858.5 2.551.79 1.218 1.358 1.574a3.55 3.55 0 0 0 1.915.534c.704 0 1.341-.178 1.909-.534s1.024-.881 1.358-1.574.505-1.544.505-2.551zm5.847 5.818l-3.182-11.636h1.432l2.432 9.477h.113l2.478-9.477h1.591l2.477 9.477h.114l2.431-9.477h1.432L374.44 313h-1.454l-2.568-9.273h-.091L367.759 313h-1.455zm16.754-3.636h1.546l1.295 1.704.341.455 1.932 2.568h-1.546l-1.272-1.705-.318-.431-1.978-2.591zm5.591-2.182c0 1.227-.221 2.288-.665 3.182s-1.051 1.583-1.823 2.068-1.656.727-2.648.727-1.875-.242-2.648-.727-1.381-1.174-1.824-2.068-.665-1.955-.665-3.182.222-2.288.665-3.182 1.051-1.583 1.824-2.068 1.655-.727 2.648-.727 1.875.242 2.648.727 1.38 1.174 1.823 2.068.665 1.955.665 3.182zm-1.363 0c0-1.008-.169-1.858-.506-2.551s-.786-1.218-1.358-1.574-1.205-.534-1.909-.534a3.55 3.55 0 0 0-1.915.534c-.568.356-1.021.881-1.358 1.574s-.5 1.543-.5 2.551.167 1.858.5 2.551.79 1.218 1.358 1.574a3.55 3.55 0 0 0 1.915.534c.704 0 1.341-.178 1.909-.534s1.024-.881 1.358-1.574.506-1.544.506-2.551zm3.551-2.909h1.341v9.363c0 .538-.093 1.004-.279 1.398s-.458.699-.829.915-.832.324-1.392.324h-.137-.136v-1.25h.125.125c.409 0 .708-.121.898-.364s.284-.579.284-1.023v-9.363zm.659-1.455a.95.95 0 0 1-.676-.267c-.186-.178-.279-.392-.279-.642s.093-.464.279-.642a.95.95 0 0 1 .676-.267.93.93 0 0 1 .67.267c.19.178.284.392.284.642s-.094.464-.284.642a.93.93 0 0 1-.67.267zm7.774-1.454h1.409v8.318c0 .742-.136 1.373-.409 1.892s-.657.913-1.154 1.182-1.081.403-1.755.403c-.637 0-1.203-.115-1.699-.347a2.8 2.8 0 0 1-1.171-1c-.284-.431-.426-.945-.426-1.539h1.387c0 .329.081.617.244.863s.394.432.682.569.615.204.983.204c.405 0 .75-.085 1.034-.256s.5-.42.648-.75.227-.74.227-1.221v-8.318zM403.503 313v-11.636h3.932c.909 0 1.655.155 2.238.466s1.015.729 1.296 1.267.42 1.149.42 1.835-.14 1.293-.42 1.824-.71.947-1.29 1.25-1.32.449-2.222.449h-3.181v-1.273h3.136c.621 0 1.121-.091 1.5-.273s.659-.439.829-.773c.175-.337.262-.738.262-1.204s-.087-.873-.262-1.222-.452-.617-.835-.807-.888-.289-1.517-.289h-2.477V313h-1.409zm5.477-5.227l2.864 5.227h-1.637l-2.818-5.227h1.591zm3.367-6.409h1.613l3.228 5.431h.136l3.227-5.431h1.614l-4.205 6.841V313h-1.409v-4.795l-4.204-6.841z" fill="#000"/><g clip-path="url(#M)"><path d="M116.622 301.117a1.22 1.22 0 0 1 0 1.766l-10.285 10a1.31 1.31 0 0 1-1.816 0l-5.144-5c-.502-.488-.502-1.277 0-1.766s1.316-.488 1.818 0l4.197 4.114 9.414-9.114a1.31 1.31 0 0 1 1.816 0z" fill="#68cc58"/></g><defs><filter id="A" x="0" y="0" width="521" height="320.92" filterUnits="userSpaceOnUse" class="G"><feFlood flood-opacity="0" result="A"/><feColorMatrix in="SourceAlpha" values="0 0 0 0 0 0 0 0 0 0 0 0 0 0 0 0 0 0 127 0" result="B"/><feOffset dy="4"/><feGaussianBlur stdDeviation="4"/><feComposite in2="B" operator="out"/><feColorMatrix values="0 0 0 0 0 0 0 0 0 0 0 0 0 0 0 0 0 0 0.05 0"/><feBlend in2="A"/><feBlend in="SourceGraphic"/></filter><filter id="B" x="62" y="272" width="398" height="77" filterUnits="userSpaceOnUse" class="G"><feFlood flood-opacity="0" result="A"/><feColorMatrix in="SourceAlpha" values="0 0 0 0 0 0 0 0 0 0 0 0 0 0 0 0 0 0 127 0" result="B"/><feOffset dy="4"/><feGaussianBlur stdDeviation="5"/><feComposite in2="B" operator="out"/><feColorMatrix values="0 0 0 0 0 0 0 0 0 0 0 0 0 0 0 0 0 0 0.17 0"/><feBlend in2="A"/><feBlend in="SourceGraphic"/></filter><linearGradient id="C" x1="159.929" y1="177.047" x2="159.929" y2="227.387" xlink:href="#N"><stop stop-color="#d9d9d9"/><stop offset="1" stop-color="#fff" stop-opacity="0"/></linearGradient><linearGradient id="D" x1="361.071" y1="177.047" x2="361.071" y2="227.387" xlink:href="#N"><stop stop-color="#d9d9d9"/><stop offset="1" stop-color="#fff" stop-opacity="0"/></linearGradient><linearGradient id="E" x1="294.024" y1="177.047" x2="294.024" y2="227.387" xlink:href="#N"><stop stop-color="#d9d9d9"/><stop offset="1" stop-color="#fff" stop-opacity="0"/></linearGradient><linearGradient id="F" x1="226.976" y1="177.047" x2="226.976" y2="227.387" xlink:href="#N"><stop stop-color="#d9d9d9"/><stop offset="1" stop-color="#fff" stop-opacity="0"/></linearGradient><linearGradient id="G" x1="211" y1="263.174" x2="310.826" y2="330.652" xlink:href="#N"><stop stop-color="#68cc58"/><stop offset="1" stop-color="#00e0ff"/></linearGradient><linearGradient id="H" x1="218" y1="269.565" x2="303.268" y2="327.203" xlink:href="#N"><stop stop-color="#68cc58"/><stop offset="1" stop-color="#00e0ff"/></linearGradient><linearGradient id="I" x1="226" y1="275.913" x2="295.67" y2="323.007" xlink:href="#N"><stop stop-color="#68cc58"/><stop offset="1" stop-color="#00e0ff"/></linearGradient><linearGradient id="J" x1="204" y1="256.783" x2="318.384" y2="334.101" xlink:href="#N"><stop stop-color="#68cc58"/><stop offset="1" stop-color="#00e0ff"/></linearGradient><linearGradient id="K" x1="197" y1="250.391" x2="325.942" y2="337.551" xlink:href="#N"><stop stop-color="#68cc58"/><stop offset="1" stop-color="#00e0ff"/></linearGradient><linearGradient id="L" x1="190" y1="244" x2="333.5" y2="341" xlink:href="#N"><stop stop-color="#68cc58"/><stop offset="1" stop-color="#00e0ff"/></linearGradient><clipPath id="M"><path fill="#fff" transform="translate(99 297)" d="M0 0h18v20H0z"/></clipPath><linearGradient id="N" gradientUnits="userSpaceOnUse"/></defs></svg>