<?xml version="1.0" encoding="iso-8859-1"?>
<!-- Generator: Adobe Illustrator 19.0.0, SVG Export Plug-In . SVG Version: 6.00 Build 0)  -->
<svg version="1.1" id="Layer_1" xmlns="http://www.w3.org/2000/svg" xmlns:xlink="http://www.w3.org/1999/xlink" x="0px" y="0px"
	 viewBox="0 0 512 512" style="enable-background:new 0 0 512 512;" xml:space="preserve">
<path style="fill:#5B5D6E;" d="M436.966,292.568v192.003c0,15.148-11.857,27.428-26.483,27.428H83.862
	c-14.626,0-26.483-12.28-26.483-27.428V27.428C57.379,12.28,69.236,0,83.862,0h326.621c14.626,0,26.483,12.28,26.483,27.428v191.997
	"/>
<path style="fill:#464655;" d="M128,512H83.862c-14.626,0-26.483-11.857-26.483-26.483V26.483C57.379,11.857,69.236,0,83.862,0H128
	V512z"/>
<g>
	<path style="fill:#515262;" d="M101.517,494.345c-4.875,0-8.828-3.953-8.828-8.828V26.483c0-4.875,3.953-8.828,8.828-8.828
		c4.875,0,8.828,3.953,8.828,8.828v459.034C110.345,490.392,106.392,494.345,101.517,494.345z"/>
	<path style="fill:#515262;" d="M436.966,300.138h-44.138c-24.376,0-44.138-19.762-44.138-44.138l0,0
		c0-24.376,19.762-44.138,44.138-44.138h44.138c9.751,0,17.655,7.904,17.655,17.655v52.966
		C454.621,292.234,446.717,300.138,436.966,300.138z"/>
</g>
<path style="fill:#FF6464;" d="M313.379,0v114.759c0,3.637,4.152,5.714,7.062,3.531l28.248-21.186l28.248,21.186
	c2.91,2.183,7.062,0.106,7.062-3.531V0H313.379z"/>
<circle style="fill:#C7CFE2;" cx="392.828" cy="256" r="17.655"/>
<g>
</g>
<g>
</g>
<g>
</g>
<g>
</g>
<g>
</g>
<g>
</g>
<g>
</g>
<g>
</g>
<g>
</g>
<g>
</g>
<g>
</g>
<g>
</g>
<g>
</g>
<g>
</g>
<g>
</g>
</svg>
