<?xml version="1.0" encoding="iso-8859-1"?>
<!-- Generator: Adobe Illustrator 19.0.0, SVG Export Plug-In . SVG Version: 6.00 Build 0)  -->
<svg version="1.1" id="Layer_1" xmlns="http://www.w3.org/2000/svg" xmlns:xlink="http://www.w3.org/1999/xlink" x="0px" y="0px"
	 viewBox="0 0 512 512" style="enable-background:new 0 0 512 512;" xml:space="preserve">
<rect x="235.875" y="108.88" style="fill:#E8E8E8;" width="152.644" height="294.241"/>
<rect x="235.875" y="108.88" width="152.644" height="31.288"/>
<rect x="417.993" y="108.88" style="fill:#E8E8E8;" width="94.007" height="294.241"/>
<rect x="417.993" y="108.88" width="94.007" height="31.288"/>
<rect y="108.88" style="fill:#E8E8E8;" width="205.618" height="294.241"/>
<rect y="108.88" width="205.618" height="31.288"/>
<rect x="21.415" y="161.43" style="fill:#E21B1B;" width="162.796" height="101.235"/>
<rect x="44.331" y="289.872" style="fill:#222020;" width="116.963" height="7.988"/>
<g>
	<rect x="21.415" y="321.822" style="fill:#999999;" width="162.796" height="3.994"/>
	<rect x="21.415" y="339.587" style="fill:#999999;" width="162.796" height="3.994"/>
	<rect x="21.415" y="357.327" style="fill:#999999;" width="162.796" height="3.994"/>
	<rect x="21.415" y="375.084" style="fill:#999999;" width="162.796" height="3.994"/>
</g>
<rect x="256.403" y="161.43" style="fill:#E21B1B;" width="111.571" height="101.235"/>
<rect x="272.139" y="289.872" style="fill:#222020;" width="80.196" height="7.988"/>
<g>
	<rect x="256.403" y="321.822" style="fill:#999999;" width="111.571" height="3.994"/>
	<rect x="256.403" y="339.587" style="fill:#999999;" width="111.571" height="3.994"/>
	<rect x="256.403" y="357.327" style="fill:#999999;" width="111.571" height="3.994"/>
	<rect x="256.403" y="375.084" style="fill:#999999;" width="111.571" height="3.994"/>
</g>
<rect x="433.569" y="161.43" style="fill:#E21B1B;" width="60.882" height="64.141"/>
<rect x="442.116" y="257.921" style="fill:#222020;" width="43.748" height="7.988"/>
<g>
	<rect x="433.569" y="286.333" style="fill:#999999;" width="60.882" height="3.994"/>
	<rect x="433.569" y="304.09" style="fill:#999999;" width="60.882" height="3.994"/>
	<rect x="433.569" y="321.822" style="fill:#999999;" width="60.882" height="3.994"/>
	<rect x="433.569" y="339.587" style="fill:#999999;" width="60.882" height="3.994"/>
	<rect x="433.569" y="357.327" style="fill:#999999;" width="60.882" height="3.994"/>
	<rect x="433.569" y="375.084" style="fill:#999999;" width="60.882" height="3.994"/>
</g>
<g>
</g>
<g>
</g>
<g>
</g>
<g>
</g>
<g>
</g>
<g>
</g>
<g>
</g>
<g>
</g>
<g>
</g>
<g>
</g>
<g>
</g>
<g>
</g>
<g>
</g>
<g>
</g>
<g>
</g>
</svg>
